<?xml version="1.0" encoding="utf-8"?>
<!-- Generator: Adobe Illustrator 25.2.0, SVG Export Plug-In . SVG Version: 6.00 Build 0)  -->
<svg version="1.1" id="Layer_1" xmlns="http://www.w3.org/2000/svg" xmlns:xlink="http://www.w3.org/1999/xlink" x="0px" y="0px"
	 viewBox="0 0 190.2 117.4" style="enable-background:new 0 0 190.2 117.4;" xml:space="preserve">
<g>
	<path d="M33.5,69.5v46.1H0V1.4h33.9l30.3,46.1c4.5,6.8,8,12.6,10.4,17.2h0.6V45.5V1.4h33.3v114.2H74.3L43.3,67.5l-9-13.6h-0.6
		L33.5,69.5z"/>
	<path d="M168.9,77.7c0,2.4,0.1,4.9,0.2,7.5c0.1,2.6,0.5,4.2,1.2,4.9c0.9,0.9,4.2,1.4,9.8,1.4l6.8-0.2c1.2,6.4,1.8,13.8,1.8,22.2
		c-2.5,0.9-6.2,1.8-11.1,2.6c-4.9,0.8-9.5,1.2-13.9,1.2c-9.2,0-16.3-2-21.3-6.1c-5-4.1-7.5-10.4-7.5-18.9V43.1h-15V24.8l15-1.4l9-22
		l25-1.4v23.4h21.2v19.6h-21.2V77.7z"/>
</g>
</svg>
