<?xml version="1.0" encoding="utf-8"?>
<!-- Generator: Adobe Illustrator 25.2.0, SVG Export Plug-In . SVG Version: 6.00 Build 0)  -->
<svg version="1.1" id="Layer_1" xmlns="http://www.w3.org/2000/svg" xmlns:xlink="http://www.w3.org/1999/xlink" x="0px" y="0px"
	 viewBox="0 0 500 500" style="enable-background:new 0 0 500 500;" xml:space="preserve">
<style type="text/css">
	.st0{fill:#6E8EE6;}
	.st1{fill:#5277CC;}
	.st2{fill:#B8C6F2;}
</style>
<g>
	<path class="st0" d="M17.6,164.7c0.1,36.4,17.4,70,46.6,97l0.3,213.4c0,12.3,10,22.3,22.3,22.3l327.2-0.5c12.3,0,22.3-10,22.3-22.3
		L436,261.2c29.1-27.1,46.4-60.7,46.3-97.1C482.2,74.8,378.1,2.5,249.7,2.7c-2.3,0-4.6,0-6.8,0.1C117.7,5.5,17.5,77,17.6,164.7z"/>
	<path class="st1" d="M423.1,474.6l-0.3-223.1l7.3-6.6c26.3-23.9,40.2-51.8,40.2-80.7C470.1,87.2,373.5,24.8,254.9,25
		c-118.6,0.2-215.1,62.8-215,139.7c0,28.9,14,56.8,40.4,80.6l7.3,6.6l0.3,223.1L423.1,474.6z"/>
	<path class="st2" d="M414,474.6l-0.3-223.1l7.1-6.6c25.7-23.9,39.3-51.8,39.2-80.7C459.9,87.2,365.6,24.8,249.8,25
		c-115.8,0.2-210,62.8-209.9,139.7c0,28.9,13.7,56.8,39.4,80.6l7.2,6.6l0.3,223.1L414,474.6z"/>
</g>
</svg>
