<?xml version="1.0" encoding="utf-8"?>
<!-- Generator: Adobe Illustrator 25.2.0, SVG Export Plug-In . SVG Version: 6.00 Build 0)  -->
<svg version="1.1" id="Layer_1" xmlns="http://www.w3.org/2000/svg" xmlns:xlink="http://www.w3.org/1999/xlink" x="0px" y="0px"
	 viewBox="0 0 739 240.9" style="enable-background:new 0 0 739 240.9;" xml:space="preserve">
<style type="text/css">
	.st0{fill:#B8C6F2;}
	.st1{fill:#6E8EE6;}
</style>
<g>
	<g>
		<path class="st0" d="M259.7,56.7c-1.3,1.1-2.9,1.7-4.2,2.8c-1.9,1.5-2.6,3.7-4,5.5c-1.1,1.4-2.5,3.1-4.2,3.8
			c-1.8,0.7-3.6,0.3-5.2,1.7c-1.2,1-1.5,2.4-2.5,3.5c-0.7,0.8-1.8,1.3-2.7,1.9c-1.9,1.4-2.9,3.1-4.6,4.6c-2.3,2.1-8.6,1.1-8.7,5.5
			c-3.3,0.2-6.4,3.1-7.5,6c-0.8-0.4-1.7-0.5-2.6-0.8c-2.1-0.7-3.5-1.8-5.4-2.8c-2.1-1.2-4.5-3-6.8-3.6c-1.1-0.3-5.3-1.1-6.2-0.3
			c-0.6,0.5-0.1,2.2-1.2,2.7c-0.9,0.5-1.1-0.3-2-0.4c-2.3-0.4-1.6,0.1-3.9,1.5c-1.9,1.1-3,1.3-4.2,3.1c-1.4,2-3.7,10.2-6.7,9.8
			c-0.7,1.9-1.8,3.6-1.4,6.2c-1.4,0.1-3.8-0.6-5,0.4c-0.6,0.5-0.9,2.1-1.6,3.4c-0.8,1.5-2.1,2.7-2.5,3.5c-0.8,1.7,0.2,3.2-1.3,4.6
			c-1.9,1.6-4.1,2.2-6.3,3.4c-2.6,1.5-5,3-7.4,5c-2.1,1.7-4.5,2.6-5.6,5.1c-0.5,1.3-0.7,2.8-1.3,4.1c-0.4,0.8-1.4,1.6-1.4,2.5
			c-0.1,0.8,0.5,1.5,0.9,2.2c-0.5,1.4-1.3,1.3-2.2,2.4c-0.6,0.7-0.4,1.4-0.7,2.2c-0.4,1-1,1.7-1.2,2.7c-0.3,1-0.2,2.1-0.6,3.2
			c-1.9,5.1-6.3,7.8-9.3,12.1c-0.9-0.7-1.6-1.9-2.6-2.5c-3.2,3.4-6.7,5.9-10.8,8c-9.5,5-16.5,13.5-25.4,19.4
			c-4,2.6-7.9,5.7-11.9,8.4c-1.5,1-3.4,2.5-5.4,3.6c0.2-0.1,0.4-0.2,0.6-0.2c1.8-0.7,3.1-1.9,4.7-2.9c1.9-1,4-1.3,5.9-2.3
			c5.8-2.7,10.9-6.7,16.7-9.3c2.2-1,4.6-2.4,7-3c1.4-0.3,3-0.4,4.4-0.7c-0.6,3.1,4-1.8,4.7-2.4c2.1-1.9,5.1-4.2,5.7-7
			c0.6,0.2,1.6,0,2.2,0.3c1,0.4,1.5,1.6,2.2,2.2c1.5-3.1,4.2-5.9,6-8.9c0.6-1,1.1-2.6,1.8-3.5c0.7-0.8,1.9-1.1,2.7-1.7
			c1.7-1.4,2.8-1.9,4-3.9c1-1.7,1.7-3.3,3.3-3.8c2.6,2.4,5.5,5.2,5.8,8.8c0.2,2.8-0.1,3.9,2.2,5.8c1.2,1,1.5,2,2.3,3.1
			c0.9-0.1,2.2,0.8,3.2,1.8c-1-1.6-1.4-4-2-5.8c-1.2-3.3-2.4-6.4-3.5-9.7c1,2,1.8,4.2,2.5,6.2c2.2,6.9,7.5,12.4,9.2,19.5
			c-1.2-4.2-1.5-8.7-2.2-13c-0.7-4.6-1.4-9.6-1.6-14.3c-0.1-3-0.1-7.1,0.8-10c0.6-2,2-3.7,2.6-5.7c0.4-1.4,0.4-2.9,1-4.2
			c0.5-1.1,1.6-1.8,2.1-2.7c0.7-1.3,0.6-3.5,2.2-4.1c2.1,2.5,2.4,5.1,3,8.1c0.3,1.8,1.4,3.5,1.8,5.3c0.6,2.6,1.4,5.1,2,7.7
			c0.7,3.1,0.9,5.9,2.2,8.8c1.4,3.2,3.7,5.3,5.8,8.1c-1.5-2.6-1.6-5.7-1.9-8.7c-0.5-7.3,0.9-15.6,4.9-21.8c1.5-2.4,3.3-2.5,3.8-5.5
			c0.3-1.8,0.3-3.3,1.2-5c0.6-1.1,1.6-1.3,2.1-2c2.1-2.6,0.8-7.2,3.8-9.6c2.4-1.9,3.3,0.2,4.8,2c2,2.4,4,4.5,5.6,7.2
			c1.4,2.3,3.6,4,4.7,6.5c0.7,1.6,1.1,3.5,1.7,5.2c0.8,2.4,1.5,4.7,2.5,7c0.2,0.6,0.3,1.1,0.6,1.6c0.6,1.2,2,2.1,2.5,2.9
			c0.8,1.2,0.7,3.2,0.9,4.6c0.3,2.1,1.1,4,1.5,6.1c0.9,4.5,1.3,9.6,1.5,14.2c1.8-3.9,2.4-8,4.5-11.7c3.6-6.5,2.4-11.7,1-19
			c-0.9-4.5-1.4-7.3-4.4-10.7c-3.1-3.6-4.9-8.1-8.1-11.8c-3.2-3.8-6.1-8.2-9-12.3c-1.4-2-1.9-4.4-3.3-6.5c-1.2-1.9-2.5-3.5-3.4-5.6
			c5.1,2.1,10.4,4.1,14.7,7.7c1.8,1.5,3.2,3.2,4.9,4.8c2.2,2.1,5.1,2.7,7.1,5.2c2.4,3,2.6,6.1,3.9,9.6c0.8,2.2,2.8,3.3,4,5.2
			c1.3,2,1.7,4.1,3.2,5.9c2.6,3.3,5.1,6.7,8,9.8c-3.3-5.7-4.9-12.3-6.6-18.6c-0.9-3.4-1.1-7-2.4-10.3c-1.4-3.5-4.1-6.7-5.2-10.3
			c3,2,4.1,5.4,6.3,8.1c2.5,3.1,4.1,8.1,7.7,10.1c-0.7-4.5-3.4-8.3-3.4-13c0-2.1-0.5-3.7-0.8-5.6c-0.4-2.6-0.1-5.8-0.2-8.5
			c0.8,0.7,2.9,1.1,3.9,1.4c1.3,0.3,3.6,1,4.8,1c0.1-2.6-0.1-5.2,0-7.9c0.1-2.1,0.8-3.4,1.3-5.3c0.3-1.3,0.1-2.5,0.3-3.8
			c0.2-1.5,0.8-2.6,0.7-4.2c-0.1-1.4-0.7-2.8-0.6-4.1c0.1-1.6,1.3-2.8,1.7-4.3c0.6-2.1-0.7-4.3,0.3-6.2c0.9-1.7,3.3-2.7,3.2-5
			C259.4,56.2,259.7,56.4,259.7,56.7z"/>
		<path class="st0" d="M333.5,112.8c3.8,5.8,5.6,14.7,16.5,18.7c-2.8-4.9-0.9-17.4-3.5-25.4c-2.4-7,0.7-14.5-6.3-18.9
			c0.5-0.2-2.9-3.5-2.4-3.7c-2-6.2,2.8-7.2,4.7-12.1c0.6-1.6,4.3-2,4.9-4.2c0.7-2.5,2.3-6.1,2-8.7c-0.4-3.7,3-6.2,3.8-10.8
			c0.4-2.4-0.1-4.9,0.5-7.1c0.7-2.5,3.1-3.4,2.7-6.8c-4.9,5.4-12.3,9.4-17,15c-4.4,5.2-3.7,14.7-10.2,19.6
			c-1.9-0.9-6.3,6.4-11.2,11.7c-3.5,3.8-9.7,7.4-10.6,9.1c-3,5.5-8.3,14.4-11.2,14.9c-1.9,0.3-4.4-1.7-7-4.1
			c-0.3,3.5,2.8,5.1,3.2,8.8c0.1,1.1,5.4,6.7,7.1,9.1c4.8,7,6.2,8.7,6.7,16c0.3,1.9,2.9,5.7,3.7,5.6c-1.7-5.4-2-16-5.2-20.3
			c2.7-1.5,4.9-3.1,7-5.6c1.8-2.2,3.4-8.3,5.7-10.1c5.1-4,8.1-6.7,8.1-6.7s4,1,4.9,6.2C330.7,105.9,330.9,108.8,333.5,112.8z"/>
		<path class="st0" d="M74.3,201.3c-1.6,0.6-3.5,1.2-5.1,1.4C70.9,202.8,72.6,202.2,74.3,201.3z"/>
		<path class="st0" d="M135.9,93.5c0.1,0,0.1-0.1,0.2-0.1C135.8,93.2,135.5,93.1,135.9,93.5z"/>
		<path class="st0" d="M136.1,126.5c0,0.7,0,1.3,0,2C136.1,128.1,136.2,127.2,136.1,126.5z"/>
		<path class="st0" d="M101.6,128.7c1.4,1.9,0.9,4,3,5.5c1,0.7,2.3,0.7,3.3,1.3c0.6,0.4,1,1,1.6,1.4c0.9,0.6,1.7,1,2.6,1.7
			c2.7,2.2,5.6,4.4,8,6.8c2.7,2.7,5.2,6.1,7.6,9.1c1.8,2.2,3,4.9,4.9,7.1c-0.3-1.4-0.3-2.6-1.4-3.7c-3.1-3.1-2.3-6.1-3.3-9
			c-0.8-2.3-3.1-3.5-4.4-5.7c-1.1-2-3.6-4.7-4-6.9c-0.6-3,3.2-1.9,3.2-3.5c0-0.6-1.8-2-2-2.9c-0.3-1.1-0.1-1.9,0.4-2.8
			c1.8-2.9,5.9-6.5,9.4-4.8c1.6,0.8,2.1,2.7,3.7,3.3c0.6,0.3,0.5-1,1.4,0.1c0.1,0.2,0.2,0.5,0.2,0.9c0.1-3.1,0.3-6.1,0.1-9.2
			c-0.2-4.4,0.2-8.6-0.3-13c-0.2-2.1-0.2-3.7,0.1-5.7c0.2-1.4-1.1-4.2,0.1-5c-0.1-0.1-0.1-0.1-0.2-0.2c-1.5,1.1-3.7,3.5-5.5,3.7
			c-0.5,0.1-1.1-0.6-1.8-0.5c-1.2,0.2-2.4,1.6-3.2,2.2c-1.3,0.9-3.2,1.4-4.3,2.4c-0.7,0.6-0.9,1.6-1.5,2.3c-1.1,1.3-3.8,3.2-5.5,3.5
			c-0.6,0.1-1.2-0.3-1.9-0.1c-0.8,0.3-1.6,1.5-2.3,2c-1.5,1.3-1.4,1.5-1.8,3.2c-0.7,3-3.9,5.7-6.4,7.4c-2.2,1.5-3.5,3.8-5.5,5.6
			C97.9,126.6,100.3,127,101.6,128.7z"/>
		<path class="st0" d="M68.5,164.3c-0.3-2.7,0.4-5.5,1.9-7.7c1.8-2.7,2.4-3.9,2.1-6.9c-0.2-2,0.7-3.8,1.7-5.6c1.6-3,2.7-6.2,4.2-9.2
			c1.1-2.1,2.9-4.6,2.3-7.2c-0.6-2.6-2.7-5.8-2.5-8.5c-1.3,0.2-1.1,0.1-0.9,0c-2,0.8-3.9,1.7-5.7,3c-2.7,2-5.2,3.2-8.4,4.4
			c-2.9,1.1-5.8,1.9-8.2,4c-2,1.8-3.7,3.9-5.8,5.7c-2.4,2-2.8,2.1-5.5,1.8c-3.2-0.4-5.5,0.4-7.9,2.3c-2.7,2.2-5.2,4-7.6,6.5
			c-0.8,0.8-1.6,1.8-2.5,2.8c0.1-0.6,0-1.3-0.4-2.2c-0.5-1.3-1.9-3-2-4c-0.2-1.7,1.7-3.4,2.4-4.8c0.4-0.7,0.5-1.6,0.8-2.3
			c0.4-0.7,1.4-1.3,1.6-2.1c0.1-0.5-0.4-1.5-0.3-2.1c0.1-0.8,0.6-1.6,0.8-2.4c-1,2.2-6.1,4.3-8.1,5.6c-2.2,1.4-3.6,4.2-5.1,6.4
			c-1.8,2.5-3.7,4.4-6.5,6.3c-0.9,0.6-5.2,4.6-3.4,5.4c-0.3,0.5-0.4,1.1-0.3,1.7c0.4-0.1,0.8,0.1,1.2,0c0.1,1.3-1.1,2.4-2.2,3.1
			c-0.3,0.1-0.6,0.2-0.9,0.2c0.2,0,0.4,0,0.5,0c-0.1,0.1-0.2,0.1-0.3,0.2c0.6-0.1,1.2-0.2,1.9-0.2c0.3,0.1,0.5,0.2,0.8,0.5
			c0.8,0.9,0.1,1.3,0,2.5c2.3-0.2,6.2-4.2,8.2-1.4c1.6,2.3-1.3,5.8,0.7,8c0.7,0.8,1.4,0.5,2.1,0.9c1,0.6,1,0.6,1.5,1.9
			c1.5-0.9,2.1-3.3,3.2-4.6c0.7,2.1-0.9,4.2-1.4,6.2c-0.7,2.5,0.2,5,0.7,7.4c0.6,2.5,0.4,4.8,0.5,7.3c0,2.8,1.4,2.9,2.8,4.9
			c2.8-1.9,4.6-5,8-6.1c4.2-1.4,4.3,2.1,6.2,4.3c1.2-0.3,1.2-1.7,1.6-2.7c0.5-1.3,0.8-1.3,1.6-2c2-1.8,4.8-2.1,7.4-2.8
			c2.8-0.8,3.6,1.3,3.7,4c0.2,3.7-0.2,7.4,0,11.1c1.8-2.3,2.3-5.6,3.8-8.2c0.9-1.5,1.5-2.9,2.3-4.4c1.5-3,4.7-6,7.9-7.1
			c0.3-2.9,3.8-4.8,3.9-8.1C71,167.8,68.8,166.6,68.5,164.3z"/>
		<path class="st0" d="M395.5,72.1c-0.2,1.6-0.3,2.7-0.3,3.9C395.4,74.8,395.6,73.5,395.5,72.1z"/>
		<path class="st0" d="M407.9,84.5c-2,2.3-2.6,4.5-4.1,7c-3.5,5.8-12.2,12.4-18.2,15.5c4.2-5.2,3.3-12.1,5.7-18.8
			c1-2.7,2.4-5.1,3.1-7.7c0.5-1.8,0.6-3.1,0.7-4.6c-0.8,2.9-2.5,5.3-3.2,7.3c-1.6,4.4-3.2,8.2-5.2,12.4c-1.8,3.9-3.7,6.4-6.9,9.6
			c-2.5,2.5-5.1,7.4-7.9,8.7c1.1,4.1-2.7,5.5-4.3,8.4c-2.9,5.2-4.3,11.4-8.6,16.3c-0.8-1.2-2.3-1.7-3.3-2.5
			c-3.4,7.1-7.5,14.8-14.2,18.6c-3.3,1.9-3.1,0.5-5.2,5.3c-1.8,4.3-4.6,7.8-6.7,11.8c3.1-0.6,5-2.2,7-4.5c1.5-1.7,3.9-6.1,3.9-6.1
			s2.6,1.2,4.4-0.1c2.2-1.6,4.9-8.1,6.4-10.4c0.3,0.8,1.3,1.5,1.6,2.3c3.3-2.9,7.1-4.2,10.3-7.6c4.2-4.5,3.8-4.9,6.7-9.7
			c0.5-0.8,1.7-1.5,2.8-3.1c0.5-0.7,0.3-3.8,0.3-3.8s3.2,1.1,3.5,0c0.9-3.2,2.8-4.1,3.9-5.2c3.3-3.4,14.4-3.6,12.3-9.9
			c2.9-0.9,5.3-5,7.2-7.3c2.2-2.8,4.4-4.1,6.6-6.3c2.4-2.4,2.3-6,5.4-11.1c0.1-0.2-0.6-1.8,0.2-3.5c1.3-2.8,1.1-5.3,0.8-6.4
			C412.2,80.7,409.6,82.6,407.9,84.5z"/>
		<path class="st0" d="M476.5,119.1c0.1-4.5-0.2-8.4,1.6-12.8c1.4-3.5,4.5-6.5,4.4-10.5c-0.1-4-2.3-7.5-3.8-11
			c-0.7-1.8-3.3-5.3,0-6.3c0.9,1.3,2.8,1.3,4,2.7c1.1,1.3,1.8,2.6,3.2,3.6c1.9,1.3,3.2,2,4.7,3.9c1.4,1.8,2.6,3.9,4.1,5.6
			c-0.1-3.5,0.8-7.2,0.5-10.7c-0.2-2.3-0.7-5.4-1.8-7.5c-1-1.9-2.9-2.9-3.9-4.8c-1.2-2.4-0.3-4-2.9-5.3c-1.9-1-4-0.9-3.6-3.8
			c-2.8,1-5.4,2.7-7.5,3.9c-3.8,2.2-2.1-1.7-3.2-4.1c-3,3.1-8,6.4-11.7,8.6c0-1,0-2,0-3c-1.8,2.1-3,3.8-4.1,6.4
			c-0.9,2-3.2,5.9-2.3,7.9c2.3-4.2,6.2-6,9.2-9.8c0.1,3.6-1.6,7.4-1.2,10.9c1.1-0.5,1.6-1.9,2.7-2.5c0.4-0.2,1.6-0.4,1.8-0.5
			c0.7-0.5,2.2-1.4,3.1-2.5c1.2,2.9-1.6,8.9-3.3,11.2c-1.4-0.1-1.9-1.5-2.2-2.8c-1,1.5,0,3.7-0.2,5.4c-0.2,1.5-0.7,2.7-1.3,4.2
			c-0.7,1.8-1.4,2.8-0.9,4.8c0.3,1.3,1.3,1.8,0.7,3.1c-1.4-0.8-3-0.5-4.5-1.4c-1.3-0.7-1.7-1.8-3.5-1.4c1.2,2.5-1.3,4.3,1.9,5.4
			c2.7,0.9,3.8-0.1,6.4,1.7C467.1,110.4,470.9,118,476.5,119.1z"/>
		<path class="st0" d="M577.1,115.5c-0.3-1.2,0.1-2.3,1.4-2.2c0.2-1.3-0.8-2.2-1.1-3.3c1.6-0.2,2.7-1.6,4.4-1.5
			c-1.4-0.3-3-0.4-4.5-0.5c-1.5-0.1-3.2-0.7-4.4-0.7c-1.7,0-6.4,2.6-7.3,4.3C568.9,112.8,574.1,116.7,577.1,115.5z"/>
		<path class="st0" d="M667.4,143.3c-1.6,0.6-3.1,1-4.7,1.3c-2.9,0.6-5.4-0.7-8.4-0.8c-0.2,0.8,0.2,1.5,1,2
			c-1.9,0.6-4.4,1.5-6.4,1.7c-1.7,0.2-2.9-0.6-4.5,0.4c0.3,0.4,0.4,1.4,0.8,1.9c-3.8,2-8.7,1.8-12.8,2.3c-8.6,1.2-20.1,4.8-28.1,0.1
			c-3.2-1.9-5.6-4.7-9-6.5c-2.8-1.4-4.9-2.9-7.2-5c-1.3-1.1-2.9-2.8-5.4-1.7c5.4,5.3,6.1,15.1,4.8,22.2c-0.7,3.8-1.6,7.8-3.2,11.3
			c-1.6,3.6-3.6,4.5-7.2,6c-3.2,1.3-5.4,2.3-8.6,1.1c-3.9-1.5-7.1-3.6-11.4-4c1,0.7,2.1,1.7,2.8,2.6c-2.7,1.8-5.1,3.9-8.2,4.8
			c-4.3,1.3-11.2,4-15.6,2.9c1.4,0.2,2.6,0.9,4,1.3c-1.4,1.5-1.9,3-4.1,3.7c-2,0.7-4.5,0.9-6.7,1c-6.5,0.3-10.8-1-16.2-4.2
			c-3.2-1.9-7.8-3.2-11.5-2c2.3,0.7,4.7,2.4,6.6,3.7c2.1,1.4,1.9,2.3,1.9,4.6c-4.9,0.1-10,1.6-15.4,2.5c-2.9,0.5-5.8,1.9-5.8,1.9
			s5.5,4.4,6.7,5.9c-3,0-5.2,2.1-8.5,2c-2-0.1-9.2,0-6.8,4.2c-2.6,0.4-4.7,1.8-7.2,2.4c-1.8,0.4-3.8,0.2-5.5,1.2
			c-1.3,0.8-2.1,2.1-2.7,3.5c4.3-3.8,7.4-3.5,12.8-2.3c0.7,0.1,1.9,0.7,2.6,0.7c1.9-0.2,0.9-0.5,2.4-1.6c2-1.4,3.5-1,5.8-1.2
			c4-0.5,7.8-2.3,11.7-3.3c4.8-1.2,9.8-1.1,14.5-2.6c1.7-0.6,3.4-1.2,5.1-2c-1.2,2-4.5,2.7-6.3,3.6c-1.1,0.5-8.8,3.6-8.6,4.8
			c0.3,2,2.8-0.4,3.2-0.5c1.5-0.5,3.5-0.1,4.8,0.9c3.1,2.4-0.4,4.8,0.2,8.1c1.8,0.2,3.9-0.8,5.6,0.1c1.2,0.6,1.5,1.5,2.7,2.1
			c1.5,0.8,1.4-0.4,2.6,1.1c1,1.2,0.8,3,1.2,4.4c1.4-2.9,3-5.5,2-8.5c-0.7-2.2-2.2-2.4-3.7-4c-1.5-1.6-1.3-3.7-2.6-5.2
			c-1.2-1.4-3.5-1.2-4.9-2c1.8-1.3,4.9-2.1,4-4.9c3.2-1.4,6.3-3,9.3-4.7c5.4-2.9,11.6-3.5,17.1-6.3c5.7-2.9,12.4-2.4,18.6-3.7
			c5.6-1.2,10.6-4,16-5.6c7.6-2.3,14.7-6.2,21.7-9.9c5.8-3.1,11.1-6,17.2-8.5c5.9-2.4,11.4-6,17.1-9c1.4-0.7,2.8-1.3,4.3-1.9
			c-0.6,1.1-2,1.6-2.5,2.6c-0.2,0.4,0.2,1.2,0,1.7c-0.3,0.7-0.9,1.1-1.3,1.8c-0.9,1.5-1.3,1.5-0.4,2.7c0.5,0.6,2.4,1.2,3,0.7
			c1.7,1.7,1.7,4.2,1.8,6.4c0.3-0.2,0.4-0.1,0.7-0.4c-0.1,3.5-0.2,8.7-1.9,12.2c2.8-4.8,7.9-10.4,7.6-16.1c-0.1-2.1-0.8-4.6-1.7-6.5
			c-0.6-1.4-4-4.1-4.1-5.7c3.6-1.3,7.4-2.4,10.9-4.1C658,148.9,664.9,147.5,667.4,143.3z"/>
		<path class="st0" d="M705.2,153.8c-0.8-2.6-2.5-4.7-2.9-7.3c-0.4-2.3-0.8-4.5-1.4-6.7c-1-4-4.7-9.4-2.9-13.5
			c-2,3.4-9.2,7.4-13.1,8.5c0.4,0.9,0.9,2.9,0.1,3.8c-1.2,1.5-0.6,0-1.7,0.4c-1.2,0.4-3.8,1.8-5.4,1.7c-0.8,3.3-1.6,8.2-5.1,8.7
			c-0.5,0.1-1-0.3-1.7-0.2c-1.1,0.2-2.2,1.1-3.2,1.5c-2,0.8-3.5,0.9-5.4-0.1c-0.4,3.5,1.6,6.6,0.4,10.2c-1,3-3.5,5.2-4.1,8.4
			c-0.1,0.6,0.4,1.3,0.3,1.8c-0.2,1.1-1.1,1.8-1.4,2.8c-0.4,1.3-0.5,2.8,0,4.1c0.4,1,1.1,1.6,1.4,2.7c0.3,0.9,0.9,2.6,1,3.5
			c0.5,4.9-2.9,10.4-3.4,15.3c1.6-3.1,4.3-5.3,6-8c2.1-3.3,4.4-9.7,4.8-13.8c0.3-3.3-2.6-8-1.8-10.7c0.6-2,3.7-3.5,5.6-3.3
			c0,1.3,0.3,2.7,1.4,3.3c2.4-2.8,1.5-7.1,2.7-10.4c2.1-5.7,7.3-9.4,12.2-12.3c1.8,1.7,1.3,9.7,3.3,9.6c0,1,0.1,2,0.3,3
			c0.9-1.8,2.7-6.3,4.5-7.2c1.6-0.7,2.9,0.7,3.9,1.5c3.3,2.4,5.6,5.7,7.4,9.5C706.4,158.4,706,156.2,705.2,153.8z"/>
		<path class="st0" d="M641,183.3c-0.2,0.3-0.4,0.7-0.6,1C640.6,184,640.8,183.6,641,183.3z"/>
		<path class="st0" d="M621.8,166.5c-3,1.5-10.1,5-9.8,9c1.4,0,2.4-1.2,3.5-2.1c0.8,1,0.7,2.7,1.2,3.9c0.9,2.5,2.7,4.4,3.9,6.7
			c1-2.6-1.6-6-0.7-9C620.8,171.9,621.8,170,621.8,166.5z"/>
		<path class="st0" d="M600.8,183.9c-2.5-0.4-5,0.4-7.5-0.1c-1.4-0.3-2.5-0.6-4.4-0.2c-2.8,0.6-6.1,1-7.9,1.7
			c-3.6,1.7-7.2,3-10.7,4.6c1.1,1,3.8,0.6,5.3,1.6c-1.4,1.9-3.1,3-4.2,5.2c3.1-0.3,6-1.7,9.2-2.1c2-0.2,5.5-1.4,7,0
			c2.2,2,2.3,7.3,1.7,10c-0.7,3-2.2,6.5-4.1,8.9c3.2-2.6,5.9-5.5,9.4-7.6c-0.1,1-0.7,2-1.1,3c5-4.9,12.5-9.7,12.1-17.7
			C605.4,187.8,604.6,184.5,600.8,183.9z"/>
		<path class="st0" d="M559.5,214.5c-0.2-1.4,0.8-2.7,0.7-3.8c-0.1-0.9-0.9-2-1.6-2.9c-1.3-1.5-2.8-3-4.4-4.2c-1.8-1.3-4-2-5.6-3.5
			c-2.5-2.3-0.2-2.9-0.8-5.7c-1.6,1.5-5.1,2.2-6.4,3.9c-0.5,0.7-2.2,5.1-2,5.6c0.5,1.2,3.6,1.9,4.6,2.5c1.4,0.8,2.9,1.7,4,2.9
			c2.6,2.7,2.7,5,2.6,8.3c3.3,0.2,6.8-0.1,10,0.3c3.2,0.3,5.2,2.9,7.4,4.9c-0.8-2.1-0.4-5.3-2-7C564.8,214.6,561,213.3,559.5,214.5z
			"/>
		<path class="st0" d="M481.5,215.7c-0.9,1.1-2.5,1.1-3.7,0.7c-0.7,3.6-2.8,5-5.9,6.9c-2.3,1.4-3.9,1.1-1.9,3.2c2,2,1.8,1.1,0.1,3.7
			c2.2,0.1,4.3,1.1,5.7,2.9c1.5,1.9,0.9,4.7,2.1,6.7c0.5-3.1,1.9-6.7,3.3-9.6c0.9-1.9,1.5-3.4,1.3-5.6c-0.2-1.7-0.7-3.2,0-5
			C482.6,218.3,481.7,217.1,481.5,215.7z"/>
	</g>
	<g>
		<g>
			<path class="st1" d="M362.5,81.6c-0.1,0.9-0.3,1.7-0.4,2.5C362.3,83.2,362.5,82.4,362.5,81.6z"/>
			<path class="st1" d="M362.5,81.6c0.2-1.6,0.5-3.2,1-4.5c0.5-1.4,1.7-1.8,1.6-3.5c-0.2-1.4-1.5-2.3-1.9-3.7
				c-0.4-1.6-0.4-3.6-0.6-5.2c-0.3-2.6-0.2-4.2,0.4-6.6c0.5-1.9,0.7-3.8-0.1-5.8c-0.8-2.1-2.4-5.6-2.7-5.9c-3,0.2-0.5,5.7-0.5,7.4
				c0.1,3.4,0.1,5.7-1.6,8.6c-0.8,1.4-1.8,4-1.1,5.7c1,2.4,3.5,3.7,4.4,6.5C362.3,77.1,362.7,79.2,362.5,81.6z"/>
			<path class="st1" d="M374,75.4c0,0.1,0,0.2,0,0.3C374,75.7,374,75.6,374,75.4z"/>
			<path class="st1" d="M372.7,95.1c-0.4-1.5-1.3-2.1-0.9-3.9c0.3-1.3,1.4-2.4,1.9-3.7c0.7-1.8,1.2-4,1.2-6c0.1-2-1-3.9-0.9-5.9
				c-0.2,0-0.8-1.5-1.1-2.7c0,3.1-0.4,7-1.5,9.9c-0.9,2.7-2.8,5.2-3.4,8.1c-0.7,3.8,2.9,6.2,1.6,10.1c-1.2,3.7-3,7.7-4.9,10.9
				c-0.9,1.6-0.8,2.7-0.9,4.4c-0.1,2.6-1.9,4.9-2,7.3c0.9-1.6,1.1-3.8,1.8-5.7c0.9-2.4,2.6-4.4,3.9-6.5c2-3.4,3.4-5.3,4.1-9.1
				C372.2,100.1,373.3,97.5,372.7,95.1z"/>
			<path class="st1" d="M387.7,97.1c0.1-1.6-0.7-1.4,0.3-2.7c0.6-0.8,1.6-1.2,2.2-2.1c1.3-1.9,2.5-4.7,3.2-6.8c1.5,2,4.1,3.4,4,6.3
				c0.2-1.9,0.5-3.2,0.5-4.9c-0.1-1.6,0.2-3.5,0-5.3c-0.3-2.8-2-5.9-2.1-8.5c-1.2,2.4-1.2,4.9-3.3,7.2c-2.5,2.8-2.6,3.7-3.5,7.2
				c-0.7,2.6-2.5,4.4-3,7.1c-0.4,2.4-0.8,4.9-2.3,6.9c-1.3,1.6-2.9,2.6-4.2,4.2c-0.9,1.1-1.7,2.3-2.6,3.4
				C380.6,107.7,387.3,101.4,387.7,97.1z"/>
			<path class="st1" d="M346.1,50.8c1.5-2.1,2.6-3.9,2.2-6.7c-1.6,1.6-2.8,3.9-4.8,5.2v-0.5c-0.5,2.6,0.4,5.5-1.1,8.4
				C344.4,56.8,345,52.4,346.1,50.8z"/>
			<path class="st1" d="M319.9,91c0.5,1,0.7,2.8,0.3,3.8c0.7-2.9,2.6-4.2,2.7-7c0.1-2.8,1.8-5.3,1.8-7.9c-1.9,1.4-2.5,4-2.5,2.4
				c-1,1.3-4.9,4.8-4.4,6.6C318.1,89.4,319.5,90.2,319.9,91z"/>
			<path class="st1" d="M417.2,100.8c0.5,2.1,2.6,4.3,3.4,6.4c1.2,2.8,2.8,5.3,4.5,7.9c2.6,4,4,6.9,4.5,11.8c1-2.2-1-5.8-1.5-8.1
				c-0.7-3,0.1-5.5-1.2-8.5c-1.1-2.5-1.7-5.3-2.8-7.6c-0.9-2-4.8-6.4-1.6-8.3c-2.1-1.3-2.2-3.3-3.8-5.2c-1.1-1.4-2.6-4.5-4.2-5.2
				c0.3,3,2.3,6.1,3.2,8.8C418.7,95.7,416.5,97.9,417.2,100.8z"/>
			<path class="st1" d="M413.8,111.8c2.1,6.1,3,12.7,3.5,19c0.3-1,1-2.3,2.2-2.8c-3.1-1.1-0.6-11.4-1.5-13.9
				c-0.3,0.4-0.9,0.6-1.2,1.1c-1.1-3.3-2.5-6-3-9.3c-0.5-3.1-0.7-6.6-1.6-9.5c0,0.3,0,0.6,0,1.1c0.2,2.5-1.2,4.3-1.1,6.6
				C411.1,106.5,413,109.5,413.8,111.8z"/>
			<path class="st1" d="M409,121.7c1.9,2.9,3.1,6.3,4.6,9.2c0.1-5.4-3-8.1-5.2-12.6c-0.9-1.8-1.2-3.5-1.9-5.2
				c-0.6-1.5-1.8-2.2-2-2.3c2.8,5.7,4.5,11.9,5.3,18.2C409.7,126.7,409.4,124.1,409,121.7z"/>
			<path class="st1" d="M399.4,115.7c0.7,2,0.9,4,1.4,6c0.4,1.4,1.9,2.7,1.8,4c3.2-1.7,9.3,19.7,11.6,21.9c-1.4-2.8-2.1-5.8-3.4-8.7
				c-0.9-2-2.1-3.8-3-5.9c-1.3-3-2.6-5.7-3.5-8.8c-0.4-1.3-1.3-2.5-1.5-3.8c-0.2-0.9,0.3-1.9,0-2.7c-0.5-1.7-2.6-3.2-3.6-4.6
				C399.1,114.3,399.6,115.4,399.4,115.7z"/>
			<path class="st1" d="M387.3,128.1c1.2,3.3,5.4,6.6,7.5,9.5c1.6,2.2,3.4,4.7,4.6,7c1.5,2.7,2.7,7.2,5.2,9.1
				c0.1-2.4-2.9-5.1-3.8-7.4c-1.6-4-3.3-8.6-4.4-12.8c-0.8-3-2-3.6-3.9-5.8c-1.2-1.4-2.2-4.2-2.7-5.4c0.3,0.7-0.5,4.7-1.2,5.9
				C388.2,128.1,387.7,128.2,387.3,128.1z"/>
			<path class="st1" d="M383.8,145.2c1.1,0.9,2.9,1.8,3.8,3c1,1.3,1,3.2,2.1,4.3c-0.1-0.7-0.1-1.5-0.1-2.2c4.2,0.5,6.9,4.9,10.6,6.6
				c-1.5-2.4-2.4-5.2-4.3-7.4c-1.9-2.2-4.6-2.9-6.4-5.2c-3-3.8-4.9-9.2-7.3-13.4c0,1.6,0.7,3.2,0.5,4.6c-0.2,1-1.3,1-0.6,2.3
				c-1.5-1-2.9-2.7-4.8-2.9c-0.1-0.4,0.1-0.5-1.4,0C378.9,138,380.6,142.5,383.8,145.2z"/>
			<path class="st1" d="M441,137.3c-0.5-2.9-2.7-4.8-3.9-7.2c0.3,1.7,0.6,5.3,0.7,6.6c0.1,2.6,1.3,6.5,0.5,9c-1-0.2-2-0.8-2.9-1.3
				c0.6,1.7,2.2,2.8,3.1,4.4c0.6,1.2,0.8,2.6,1.5,3.6c1.4,1.9,4,3,5.7,4.7c1.1,1.2,2,2.6,3.2,3.7c-1.8-5.4-4-11.2-6.7-16.1
				C440.7,142.2,441.4,139.9,441,137.3z"/>
			<path class="st1" d="M436.7,129.2c0.1,0.3,0.3,0.6,0.4,0.9C436.9,129.4,436.8,129,436.7,129.2z"/>
			<path class="st1" d="M428.3,176.6c-5.4-2.9-8.6-7.3-12.9-11.7c-2.2-2.3-4.1-3.3-7.2-4.1c-3-0.7-4-3.1-6.6-4.1
				c1.7,2.7,2.9,4.3,5.7,6.1c3.1,1.9,4.7,5.5,7.7,7.8c1.9,1.5,3.5,3.4,5.4,4.9c2.1,1.7,3.9,2.4,5.6,4.7c2.8,3.9,5,8.4,8,12.2
				c-0.7-4.2-4.9-7.4-5.9-11.4c1.6,0.6,2.8,2.1,4,3.3c-0.7-0.8-0.6-0.9-0.1-1.7c-2.6-2.4-5.1-4.9-7.7-7.3c1.8,1.3,3.9,1.7,6,2.5
				C429.7,177.3,429,176.9,428.3,176.6z"/>
			<path class="st1" d="M437.8,182.1c-0.4-0.1-0.7-0.3-1-0.4c1.7,1.1,3.4,2,4.9,2C440.6,183.1,439.1,182.6,437.8,182.1z"/>
			<path class="st1" d="M431.9,178.4c-0.5-0.3-1-0.5-1.5-0.7c2.1,1.3,4.1,2.8,6.4,3.9C435,180.5,433.3,179.1,431.9,178.4z"/>
			<path class="st1" d="M446.5,132.3c1.8-3.8,0.1-8.1-0.6-11.9c-0.5-2.8-0.4-5.8-1-8.5c-0.3,3.7-2.3,2.8-4.8,2
				c-0.4,0.5,3.1,8.5,3.8,10.1C445,126.5,447.5,129.5,446.5,132.3z"/>
			<path class="st1" d="M467.1,124.2c0,1.6-1.8,4.9-3.4,5.6c-2.5,1-2.7-4.2-3.7-6.5c-1.3-2.9-3.1-5.8-4.4-8.7
				c-0.6,1.6,0.4,4.3,0.8,5.9c0.7,3,0.9,5.7,0.9,8.8c0,3.2,2.1,5.6,4,8.3c2.1,3,3.9,5.3,5.3,8.8c1.4,3.5,1.9,7.5,3.4,10.9
				C465.8,146.1,467,135.6,467.1,124.2z"/>
			<path class="st1" d="M454.7,112.7c0.2,0.6,0.5,1.3,0.8,1.9c0-0.1,0.1-0.2,0.1-0.3C454.8,113.4,454.8,112.2,454.7,112.7z"/>
			<path class="st1" d="M314.8,124.6c-0.2-3.3-2.4-5-1.9-8.2c-1,3.7-2.8,6.3-1.7,10.3c0.7,2.7,1.7,5.3,2.3,8.1
				c0.5,2.1,1.8,4.3,1.7,6.4c0-4.1,0.2-8.2,0.5-12.3c0.2-2.7,1.2-4.1,2-6.6C316.8,123.2,315.9,124.4,314.8,124.6z"/>
			<path class="st1" d="M260,57.8c-0.2,0.4-0.5,0.9-1,1.5C259.6,58.7,260,58.2,260,57.8z"/>
			<path class="st1" d="M249.9,71.7c0.2,1.3,1.9,2.1,2.7,3.3c1,1.7,0.8,3.5,0.6,5.2c-0.2,2.3,0.4,3.8,0.8,6.1
				c-0.3-3.4,2.1-5.8,2-9.2c-0.1-2.5-0.1-4.7,0.3-7.2c0.2-1.1,0.8-2.5,0.8-3.6c-0.1-1.1-0.9-1.6-0.6-3.1c0.3-1.4,1.6-2.9,2.6-4.1
				c-1.4,1.3-4,3-4.6,4.3c-1.3,2.5-0.4,5.7-2,7.8c-0.8-0.6-1.4-1.8-1.7-2.9C250.8,69.9,249.7,70.7,249.9,71.7z"/>
			<path class="st1" d="M250.6,67.8c0,0.2,0.1,0.4,0.1,0.7C250.7,68.3,250.7,68,250.6,67.8z"/>
			<path class="st1" d="M266,61.1c0,0,0.1,0.1,0.1,0.1C266.1,61.1,266.1,61,266,61.1z"/>
			<path class="st1" d="M265.5,65c1.2-0.4,2.3-2.5,0.6-3.8c0,0.3-0.4,0.9-0.6,1.5c-0.3,1-0.7,1.7-0.8,2.8c-0.3,1.8-0.2,4.4,0.3,6.1
				C264.8,69.7,264.8,66.6,265.5,65z"/>
			<path class="st1" d="M267,106.4c1-2.7,1.2-5.7,2.1-8.5c0.4-1.4,1.1-6.2,1.7-6.8c0,0.3,0,0.6,0,0.9c1.5-1.9,2.2-3,4.1-4.5
				c1.1-0.9,2.1-1.7,2.8-2.7c1.7-2.6,2.9-6.4,3.7-9.3c-3,2.6-4.6,6-8.1,7.9c-0.4-0.4-2-0.6-2.1-0.8c-1-1.5,0.9-3.9,1.5-5.3
				c1.1-2.5,2.9-4.4,2.6-7.4c-0.4,0.6-1.2,0.9-1.6,1.5c-0.6-2,1.6-4.4,1.5-6.6c-1.3-0.1-2,1.1-3.3,1.2c0-1.1,0.1-2.1,0.2-3.2
				c-0.3,0.3-2.3,1.6-2.5,3.2c-0.1,0.9,0.5,1.6,0.2,2.7c-0.3,0.9-1,1.6-1.3,2.7c-1.1,4.1,0.3,8.5-2.1,12.3c-0.2-0.3-0.9-1-1-1
				c-0.3,1.6,0.5,2,0.8,3.4c0.6,2.4,0,1.7-0.3,3.7c-0.5,3.3,0.4,5.1-1.4,8.3c0.9-0.4,1.9-1.5,2.9-2
				C267.9,99.4,266.5,102.9,267,106.4z"/>
			<path class="st1" d="M272.2,62.7C272.2,62.7,272.2,62.7,272.2,62.7C272.2,62.7,272.2,62.7,272.2,62.7z"/>
			<path class="st1" d="M223.8,92.1c0.2,0.4,2,0.5,2.4,0.8c1.2,0.7,1.7,1.9,2.7,2.8c1.3,1.1,2.5,0.6,3.6,1.3c1.7,1,4.2,4.4,5.7,6.2
				c2.2,2.5,3.9,6,5.4,9c1.6,3.2,2.9,9.5,5.6,11.7c-1-3.7-2.9-6.9-4.1-10.4c-1-2.7-1.3-6.1-2.6-8.5c-1-1.7-2.7-2.7-4.1-4
				c-1-1-1.6-2.3-2.5-3.4c-2-2.2-4.7-3.9-6.3-6.2c-1.4-2-1.5-5.3-3.7-6.6c-3.8,2.7-1.7,3.2-1.4,4.6
				C224.5,90.1,223.4,91.5,223.8,92.1z"/>
			<path class="st1" d="M222.3,100c3.2,2.9,6.8,5.3,9.5,8.8c1.1,1.4,1.3,2.4,1.9,4c0.7,2,1.7,3.5,2.9,5.4c2.2,3.6,4.1,7.2,5.8,11
				c1,2.3,1.9,4.9,2.9,7.2c1.2,2.7,3.3,4.8,4.7,7.5c-2.5-4.2-5.1-9.6-5.8-14.4c-0.6-3.7-2.6-7.1-4.3-10.9c-1.6-3.8-2.7-8.2-5.4-11.2
				c-3-3.2-5.8-7.3-9.3-10c-1.8-1.3-3.6-2.5-5.1-4.2c-1.7-1.8-0.6-2.7-1.6-4.5c-0.6,0.3-1.2,0.8-1.5,2
				C216.4,93.4,220.5,98.3,222.3,100z"/>
			<path class="st1" d="M291.8,85.8c-0.4-1.2,0.9-4.2,1-5.7c-1.1,0.1-2.1,1-3.1,1.3c0.1-1.9-1.8-1.7-2.2-3.4c-0.2-0.1-0.5,0-0.5-0.2
				c0,1,0.4,2.7,0,3.6c-0.5,1.2-1.7,0.8-2,2.1c0.5,0,1.1,0.4,1.7,0.4c0.4,2.7,1,6.7-0.5,9c-1.7,2.8-5,2.7-7.6,4
				c1.3-1.9,2.6-5.2,2.9-7.5c0.2-1.6,0.9-4.3,0.6-6c-1.1,1.4-2.7,3.1-4.5,2.6c-0.9,2.1-0.8,4.7-1.3,6.9c-0.7,3.1-2.9,4.6-4.1,7.2
				c-1.4,3-0.5,6.6-2.2,9.6c-1.1,2.1-2.8,3.8-3.5,6.2c2.6-1.1,6.7-6.3,8.9-8.2c1.3,2.4,2.1,2.3,3.3,1.3c1.8-1.4,3.5-4.3,5.4-5.7
				c1.8-1.4,4.9-5.3,6.4-3.7c2.3-2.6,1.8-5.4,3.6-8.2c1.3-2.1,1.4-5,3.1-6.8C295.6,84.7,292.8,88.6,291.8,85.8z"/>
			<path class="st1" d="M286.9,77.8c0-0.1,0-0.2,0-0.3C286.9,77.6,286.9,77.7,286.9,77.8z"/>
			<path class="st1" d="M199.2,96.4c1.5,2.2,2.2,1.5,4.1,2.8c1.4,0.9,2.7,2.8,4,4c-0.6-1.6-1.7-2.9-2.4-4.5
				c-0.8-1.8-0.3-2.7-1.1-4.4c-1.5-3-5.7-6.7-7.5-8.9c-2.1,4.1-1.9,6.1-1,7.2C196.6,94.1,198,94.6,199.2,96.4z"/>
			<path class="st1" d="M233.4,145c-0.5-1.1-0.2-2.6-0.5-3.8c-0.3-1.1-1.1-2.5-1.6-3.7c-0.9-2.2-1-4.4-1.8-6.5
				c-0.7-2-1.8-1.6-2.9-2.8c-1.5-1.5-2.6-4-3.9-5.8c-1.4-2-2.9-2.6-4.6-4.2c-2.5-2.3-3.8-5.3-6.5-7.6c1,1.6,1,3.8,2,5.5
				c0.3,0.5,1.1,0.7,1.6,1.7c0.4,0.9-0.1,1.6,0.4,2.6c1.6,3.3,5.7,4.7,6.8,8.4c0.7,2.4,0.9,3.9,2,6.2c1.1,2.3,0.2,5,1.1,7.1
				c1,2.3,2.7,3.2,2.8,6.1c0,2.4-0.3,4.3,0.1,6.7c0.2,1.4,0.7,2.1,0.1,3.4c-0.4,1.1-1.2,0.9-1.5,2.4c-0.1,0.7,0.3,1.2,0.3,1.8
				c0.1,1.8-0.3,2.5-0.8,4.3c-0.4,1.5-0.2,3.4-1,4.7c0.3,0.1,0.8,0,1.1-0.1c0.2-3.6,2.4-7.2,4.2-10.3c1.4-2.3,4.2-4.3,5-6.8
				c-2.7-1.9,0.2-2.5,0.7-3.7c0.6-1.4,0.3-1.9-0.7-3.1C235.3,146.9,233.9,146,233.4,145z"/>
			<path class="st1" d="M204.7,115.2c-1.7-2.8-4-6.4-6.6-8.8c-1.3-1.1-2.9-2.2-3.9-3.6c-1.2-1.7-1.9-3.7-3.1-5.4
				c-1-1.5-5.6-6.1-5.2-7.2c-1.4,1.6-5.5,3.7-4.3,7.2c0.6-1,1.2-2,2.1-2.5c1,1.4,2.2,4,4.1,3.9c0.4,1.8-0.7,3.3-2,4.5
				c-0.2-1.9-1.4-0.2-2.2-1.2c-0.5-0.8-0.6-3.2-0.7-4.1c-0.9,2.6-3.1,4-4.3,6.6c0.8-0.8,1.7-1.5,2.8-1.5c0.1,1.5,1.3,2.3,2.3,3
				c0.8-0.5,1.7-0.7,2.5-0.7c-0.1,1.6-1.4,3.1-2.3,4.5c0-0.1,0-0.3-0.1-0.4c-1.4,1.2-1.6,3.6-1.1,5.2c0.3,1,2.4,5.5,2.8,5.8
				c1.4-1.8,2.4-3.7,3.9-5.4c-0.8,1.8-2.9,6.6-1.3,8.4c1.2-3.1,1.9-7.2,5.3-7.1c-0.6-1.9,2.9-2.7,3.9-4c-0.9,2.1-3,2.9-2.5,5.1
				c0.4,1.8,2.1,3.4,3.1,4.9c0-2.2,1.6-4.9,3.6-4.3c1.3,0.4,2,2.2,2.7,3.1c1.1,1.3,2.5,2.3,3.7,3.5c1.9,2,3,4.9,4.5,7.2
				c1.3,2.2,2.9,4,4.3,6.1c1.1,1.6,3.4,4.4,3.7,6.1c-0.4-6.2-4.3-12-7.7-16.8C210.1,123.3,207.3,119.4,204.7,115.2z"/>
			<path class="st1" d="M185.9,90.2c0.1-0.1,0.1-0.1,0.2-0.2C186,90.1,185.9,90.1,185.9,90.2z"/>
			<path class="st1" d="M265.2,151.8c-1,0.8-1.9,0.8-2.9,1.9c-1.6,2.1-3.1,6.3-3.8,8.8c-1-1.2-1.6-3.8-3.5-5.4
				c0.7,3.6,0.9,5.6-0.4,9c-1.2,2.8-1.6,6-2.6,8.9c-1.9,5.5-5.4,7.1-9.5,10.3c2.5,1.3,7.1-3.7,8.7-5.2c1.4-1.4,3.2-2.6,4.4-4.2
				c1.4-1.8,1.5-3.8,2.6-5.9c1-1.9,2.2-3.6,3.1-5.5c1-2.3,1-5,2.1-7.3c1.6-3.5,4.7-7,4.9-11.1C267.9,148.3,267,150.4,265.2,151.8z"
				/>
			<path class="st1" d="M327.4,135.9c-0.9-1.6-0.9-3.6-1.8-5.1c-0.7-1.2-1.9-1.5-2.5-2.8c0.7-0.7,1-1.6,1.6-2.2
				c1.2-1.2,1.7-0.8,2.9-1.7c0.9-0.7,1.2-0.8,1.3-2c0.1-1.4-1.1-0.9-1.2-1.8c-0.3-1.9,1.3-2.9,1.5-4.8c0.3-2.5-1.6-4.1-1.6-6.5
				c-2.8,0.5-5.5,0.8-8.3,1.5c1.6-1.7,1.6-3.7,3.2-5.5c1-1,1.8-1.5,2.1-3c0.2-1.2-0.5-2.5-0.3-3.3c0,0.9-3.6,6.3-5.9,6.7
				c-0.2,2.6-2.3,5-2.5,7.6c0.2-0.2,0.7-0.4,0.9-0.5c1,1.5,0.8,3,0.8,4.8c2.3-2.3,4.7-3.9,7.8-5.1c0.9,1,1.6,4,1.2,5.3
				c-0.4,1.3-3,5.1-4.2,5.4c-0.7,2.9-3.8,5.8-2.4,9.2c0.3-0.3,1.2-0.5,1.5-0.9c1.2,2,1.1,4.1,1.8,6.3c3.8-1.1,3.8,9.8,4.3,12.5
				c0.6-0.6,1.1-1.1,1.4-2c0.4,0.8,0.7,2,0.7,3.2c-1.1,5-1.4,10.7-3,15.5c0.9-1.7,2.9-3,3.6-4.8c0.5-1.2,0.6-3.1,1-4.4
				c0.8-3.4,0.9-7.9,0.4-11.5C331.2,142.6,329.1,138.8,327.4,135.9z M329.7,151.4c0,0.2,0,0.4,0,0.5
				C329.7,151.8,329.7,151.6,329.7,151.4z"/>
			<path class="st1" d="M322.3,123C322.3,123,322.4,123,322.3,123c0.2-0.4,0.2-0.8,0.2-1.2C322.5,122.2,322.4,122.6,322.3,123z"/>
			<path class="st1" d="M341.3,89.7c1,1.3,2.2,3.2,2.5,4.8c0.8,4.2,0.3,8.8,1.7,13c0.3,0.8,1,1.4,1.3,2.2c0.5,1.7,0.2,3.5,0.3,5.2
				c0.1,3.7,1.2,8.2,4.3,10.6l2,1.3c0.3,0.1,0.4,0.4,0.5,0.1c-4-3.7-5.3-11.8-5-16.9c0.1-2,1.1-3.9,1.2-5.8c0.1-1.4,0-3.7-0.1-5.4
				c0-3,0.4-8.4-1.6-10.6c-2.1,1.4-2.1-0.7-2.5-2.2c-0.7-2.3-0.6-1.4-2.1-2.8c-1.7-1.6-3.5-2.8-3-5.4c0.5-3.1,3-4.8,5.1-6.9
				c1.2-1.2,2.1-4,4.1-4.1c0.3-1.5,0.9-2.3,1.1-3.9c0.1-1.4-0.9-4.2-0.1-5.4c0.9-1.3,2-0.6,2.8-1.8c0.3-0.5,0.5-2.7,0.6-3.3
				c0.4-3.2-1.3-9.7,0.3-13.4l-0.2,0c-1.7,1.7-0.7,6.5-1.9,8.9c-1.3,2.7-4.3,5.3-4.2,8.5c0,1.5,0.6,2.6,0.2,4.2
				c-0.4,1.5-1.5,3.2-2.4,4.5c-2.1,2.9-4.8,5.1-6.5,8.2c-1.5,2.7-3.3,4.4-5.2,6.8c2,1.7,1.7,5.2,3.4,7
				C338.9,88.4,340,88.1,341.3,89.7z"/>
			<path class="st1" d="M355.8,198.8c-1.8-2.6-1-6.7,0.1-9.4c0.8,0.6,1.5,1.4,1.5,2.5c0-6.6-3.6-12-4.4-18.3
				c-1.3,1.5-1.7-0.1-2.9-0.3c-1.2-0.1-2.6,0.9-3.3-0.7c-2.9,0.7-1.4,1-3.3-0.8c-1-1-2.5-1.6-2.1-3.3c-1,3.8-0.8,3.8-0.5,3.9
				c-0.1,1.6,0.9,6.9,1.8,7.9c1,1.1,2.5,0.6,3.7,1.5c1.3,0.9,2.5,5.2,4.2,2.9c0.5,4,1.2,7.9,0.2,11.7c-0.4,1.5-0.5,3.7-2.2,3.4
				c-2.3-0.5-2-4.3-2.7-5.9c-2.2,0.6-4.2-1.2-6.2,0.2c-0.4-1-0.5-2.1-1-3.1c-1.9,1-0.1,3.9,0.3,5.5c0.3,1.3,0.3,5.9,1.8,6.6
				c1.4,0.6,1.2-0.6,2.3-1c1.3-0.5,0.4-0.8,1.8-0.7c0.8,0.1,2.5,1.9,3.3,2.1c3,1,3.3-0.6,4.4,3.6c0.1-0.2,0.1-0.4,0.2-0.7
				c0.5,0.7,0.9,1.8,1.5,2.3c0.1-0.2,0-0.5,0-0.7c1.2,2.2,1.8,5.4,3.8,6.8c1.1-5.5-0.5-11.4-0.8-16.9
				C357,198.2,356.1,198.5,355.8,198.8z"/>
			<path class="st1" d="M179.9,158.9c0.5,1.1,1,2,1.5,2.6C181.2,160.4,180.6,159.7,179.9,158.9z"/>
			<path class="st1" d="M182.4,132.3c-0.3,1.3-1.6,2.4-3,1.5c-0.6-0.4-0.2-3-0.9-3.8c-0.7-0.9-2.2,0.2-2.9-0.4
				c-2.9-2.5-3.5-7.6-4.9-10.7c-0.3,0-0.7,0.2-1,0.3c-0.1-1.6,0-3.2-0.3-4.7c-0.8,1.8-0.6,5.9-2,5.9c1.8,2.2,0.3,6.5,1.4,9.3
				c1.7,4.4,3.6,7,3.8,12c0.1,4.5,0.5,5.6,2.7,9.2c1.2,2,1.5,4.3,2.9,6.2c0.5,0.7,1.2,1.3,1.8,1.9c-1.7-3.9-2.5-10-1.7-13.1
				C179.3,141.3,181.6,136.9,182.4,132.3z"/>
			<path class="st1" d="M161.5,171.7c-1-2.4-0.5-4.9-1.8-7.1c-1.5-2.5-2.1-2.1-2.3-5.3c-0.4-4.9,0.6-9.2,1.5-13.8
				c-3,3.2-5.9,5-9.2,0.6c-1.5-2-1.3-5-1.1-7.5c0.3-3.1,2.3-4.2,2.7-6.7c-2.4,1.8-8.3,9.7-8.3,9.7s3.8,7.2,4.9,9.9
				c1.9,5.1,3.6,9.7,6.1,14.6c1,2,1.4,4.7,2.7,6.6c1,1.4,2.4,1.9,3.5,3.1c2.3,2.7,3.7,7.1,4.9,10.3c0.5-5.3-1.2-11.3-1.6-16.6
				C163.2,170.1,161.9,171,161.5,171.7z"/>
			<path class="st1" d="M475.1,66.5c-1.3-0.4-2.2-3.3-2.9-4.6c-0.4,0.3-1,1.2-1,1.7c0.2,4.8-2.8,8-2,12.7c0.7-1.8,1.6-3.1,2.8-4.8
				C473,70.2,473.8,67.5,475.1,66.5z"/>
			<path class="st1" d="M495.2,70.8c-2.5-2.3-4-4.7-6.1-7.1c-1.3,1-1.7,2-3.4,1.3c-0.9-0.3-2.6-1.6-3-2.3c-0.2,2.2,2.1,4.5,4.2,4.3
				c0,2.3-1.1,4.6,0.8,6.5c1.5,1.6,3.5,1,4.7,3.6c1.2,2.7-0.2,5,0.3,7.8c0.4,2.6,2.2,4.6,2.1,7.4c-0.2-4,0.9-7.3,1.8-10.9
				c1.1-4.6,2.8-3.7,5.2-5.5C500,74,497.1,72.5,495.2,70.8z"/>
			<path class="st1" d="M516.9,86.1c0.6,1.8,1.6,3.3,1.5,5.2c1.7-1.2,1.5-2.8,3.8-2.8c1.5,0,2.4,1,3.3,2c1.6,2,2.7,7.2,1.7,9.6
				c1.1-0.1,2-1.1,2.7-2c1.4,2.8,2.7-1.4,4.7-1.1c1.4,0.2,4.4,4.7,5.7,5.7c3.4,2.6,6.5,4.9,9.3,8.5c-0.2-2.8-2.1-5.3-3-7.9
				c-0.6-1.9-0.7-3.6-1.8-5.5c-0.8,1-4.1-3.1-5.2-4c-4-3.1-8.2-5.9-12.2-8.9c-3.4-2.5-7.1-3.6-10-6.7c-0.6,1.5-0.8,3.7-2.3,4.6
				c-1-1-1.4-2.5-2.6-3.1c0.8,2.6,2.3,4.1,2.2,7C515.2,86.4,516.5,86.3,516.9,86.1z"/>
			<path class="st1" d="M495,113.5c0.7-2.8,4.3-4.3,4.1-7.3c-0.2-2.4-3.1-3.9-3.5-6.2c-2,1.4-6.4,1.5-6.1-1.9
				c-3.2-0.6-3.4,1.3-4.6-1.8c-0.8-2.1,0.1-4.5-1-6.6c-1.2-2.2-2.3-1.7-3.9-3.9c-0.5-0.7-1.1-2-1.4-2.9c-0.3-1.1-1.2-1.7-0.7-1.2
				c-2.5,3,2.2,6.3,2.1,9.6c-0.1,2.3-1.2,7.5-2.1,9.7c-0.8,1.9-2.6,2.2-3.6,3.9c-1,1.8,0.3,2.5,0.2,3.7c-0.1,1.2-1.7,2.6-1.6,4.3
				c0,0.8,2.5,4.4,2.5,4.6c0.8,3.5,6.4,3.8,9,3.7c2-0.1,4.3-0.5,6,0.2c1.5,0.6,2.6,2,4.1,2.7c1.1,0.5,2.2,0.5,3.3,0.9
				c1,0.4,1.3,1.2,2.5,1.3c0.1-0.3,0.7,0.7,0.6,0.4c0.1,0.1,0.7,0.9,0.5,0.4C499.3,122.4,493.6,119.5,495,113.5z"/>
			<path class="st1" d="M539.7,164c-0.3-0.8-0.2-1.8-0.4-2.6c-0.8-3.1-4.1-6.9-3.5-10c0.6,0.2,1.8-0.1,2.5,0.2c-1.3-3.4-4-5-6.3-7.7
				c3.9-2.9-5.3-12-6.8-15.1c-1.7-3.5-6.3-5.2-7.1-9.4c-0.8-3.9,2.4-5.2,2.2-9.1c0.4-0.2,0.9-0.2,1.3-0.2c-0.4-0.4-0.5-1-0.9-1.4
				c4.8-1.6,9.7,4.2,14.8,3.5c-0.8-2.1,0.8-4.4-1.6-5.9c-1.9-1.2-4.6,0.6-6.2,0c-1.2-0.4-3-2.6-4-3.5c-2-1.7-4-3.4-6.2-4.7
				c-0.6,3.1-12.8-4.1-14.2-7.1c-0.4,3.9,3.4,6.5,5.2,9.6c1.5,2.6,3.6,5.8,3.6,8.8c-0.6,0.1-1.1,0.4-1.7,0.5
				c0.1,0.7-0.3,1.7-0.1,2.4c-0.4,0-0.9,0.1-1.3,0.1c-2.1,3.9,4.9,11.4,6.5,15.1c-1.6,0.2-3-0.8-4.1-2c-0.2,0.2,0.1,0.7,0.2,0.9
				c-0.4,0-1.2,0-1.6,0.1c3.3,3.5,4.2,7.1,6.5,11.1c0.6,1.1,1.8,1.8,2.3,2.9c0.4,0.7,0.4,1.4,0.6,2.1c0.2,0.8,0.6,1.2,1.2,1.8
				c1.1,1.1,1.8,2.4,2.5,3.7c0.8,1.6,1.7,3.1,2.8,4.6c2.5,3.4,6.2,5.7,9.2,8.6c0.9,0.9,1.8,1.9,2.8,2.8c1.4,1.3,2.9,2.7,3.3,4.6
				c0-0.8,0-1.8-0.3-2.6C540.5,165.3,539.9,164.7,539.7,164z"/>
			<path class="st1" d="M74.5,169.2c1.8,0,3.7-1.8,2.7-3.7c-2.7-2.7-3.7-6.4-1.8-9.2c1.5-3,4.9-4.9,7.4-7.4c0-1.4,0.4-2.1,1.1-3.3
				c1.3-2.3-0.1-1.9-0.9-4c-0.2-0.5-0.6-2.2-0.5-2.6c0.5-1.8,2.2-2.5,2.5-4.6c0.1-0.9,0.1-2.4,0-4.4c-0.1,0.1-0.2,0.2-0.3,0.3
				c0.2-0.6,0-1.3-0.7-2.1c-1-1.1-2-2.3-3.1-3.4c-0.7-0.7-1.4-1.4-1.8-2.4c-0.3-0.6-0.4-2.2-0.8-2c-0.8,1.3-0.7,1.8-0.3,3.2
				c0.2,0.6,0.3,1.3,0.6,1.9c0.1,0.4,0.9,1.4,0.8,1.8c-0.2,1.4-3.4,1.8-3.9,3.5c-1,3.4-2.7,6.8-5.2,9.5c-1.1,1.1-1.9,2.4-3.3,3
				c-1.1,0.5-2.9,0.9-3.5,2.1c1.6-0.1,3.3-1.6,4.9-2c1-0.2,1.7,0.7,2.5,0.8c-0.1,0.1-0.2,0.2-0.3,0.3c-2,1.7-4.3,5.9-6.9,6.7
				c-1.3,0.4-2.2-0.6-3.5,0.4c-1.3,1-2,2.8-3.5,3.9c-1.3,0.9-2.7,1.5-3.9,2.5c-1.4,1.1-2.3,2.4-3.5,3.7c-2.2,2.2-4,4.7-6.1,6.9
				c2.5-2.3,5.4-4.1,7.7-6.6c1.5-1.6,2.9-2.5,4.8-3.7c0.9-0.5,3.3-3.9,4.2-3.8c2.8,0.2-0.4,3.8-1.1,4.4c-1.1,0.9-2.6,1.2-3.7,2.1
				c-2,1.6-3.1,4.6-4.4,6.8c1.8-1.6,3.2-3.7,5.3-5c1.1-0.7,1.8-0.9,2.6-2c2,0.3,1.3,3.5,1.2,5c-0.1,3.2,1,6.9,1.9,10.1
				c1.1,3.9-1.2,5-3.6,8c-1.2,1.5-2.2,3.7-1.9,5.6c2.2-0.3,3.3-3.8,5.2-5c1.1-0.7,3.8-1.7,5-1.3c2.7,0.8,4.8,6.8,8.2,4.9
				c0.1-0.8,0-1.6-0.1-2.4c1.9-0.4,3.8,1.9,4.9,3.2c1.4,1.8,1.6,2.1,3.7,2.8c1.3,0.5,1.7,0.8,2.7,0.6c-3.1-3.6-6.3-7.1-8.4-10.7
				C75.4,178.4,77.3,174.7,74.5,169.2z"/>
			<path class="st1" d="M132.6,161.5c0,0,0-0.1,0-0.1l-0.2-0.6C132.5,161.1,132.6,161.6,132.6,161.5z"/>
			<path class="st1" d="M141.1,125.5c0.8-1.1,3.8-0.6,5-1c-0.7-1.7-2-3.1-2.7-5c-0.5-1.6-2.6-3.9-1.8-5.7c0.7,0.3,1.5,0.4,2.1,0.7
				c-0.2-0.8-0.9-1.3-1.2-1.9c-0.3-0.7-0.5-1.4-0.8-2.1c-1.2-2.4-1.8-4.3-2-7c0.4,0.3,0.9,0.7,1.3,1.1c0.6-1.3,1.3-1.9,0.2-3
				c-0.6-0.6-1.7-1-2.3-1.6c-0.7-0.7-1.6-1.7-2.1-2.6c-0.4-0.8-0.3-2.7-1.4-2.6c0.1,1.6,1.1,1.7,0.1,3c-0.4,0.6-0.7,0.4-0.8,1.1
				c0,0.4,0.4,1.5,0.5,2c0.3,1.5,0.4,2.9,0.7,4.4c0.2,1.1,0.8,2.5,0.2,3.6c-0.5-1.2-1.2-2.5-2.6-2.8c1.2,3.1-5.5-0.6-6.3-1.5
				c0.9,1.6,3,3.4,4.3,4.7c0.8,0.9,1.7,1.8,2.5,2.7c-2,3.1,0.2,6.5,0.4,9.7c0.1,2,0,4.6-0.5,6.5c-0.3,1.3-0.8,2.3-1.3,3.4
				c-0.6,1.3,0,1.5,0,2.8c0,1.7-1,2.3-2.6,2.3c0,1-0.6,1.5-1.1,2.2c-1.1,1.8-0.7,2.6,0.4,4.3c0.6,0.9,1.2,2.1,1.6,3.1
				c0.6,1.4,0,2.7,0.2,4.2c0.2,1.1,0.6,0.4,1.1,1.4c0.6,1.1-1,2.7-0.8,4c0.2,1.4,1.1,2.4,1.1,3.9c0,0.5,0,1.1,0,1.6l0.3,0.7
				c-0.3-0.7,0.8-1.7,0.9-2.6c0.7-3,0.9-6.3,1.5-9.3c0.5-2.8-0.9-4.9-1.1-7.6c-0.1-1.8,2-6.1,3.9-3.2c0-1.3,0.7-2.2,1.3-3.3
				c0.6-1.3,0.9-2.8,1.7-4.1c0.8-1.3,1.8-1.5,1.4-3.1C142.1,127.8,140.3,126.5,141.1,125.5z"/>
			<path class="st1" d="M132.3,160.6l0.1,0.2C132.3,160.6,132.3,160.4,132.3,160.6z"/>
			<path class="st1" d="M116.8,107.6c-1-0.2-0.9,0-2-0.3c-0.6-0.1-1.8,0.6-2.1,0.3c0.2,1.1,0.2,0.8-0.3,1.6c-0.5,0.7-0.9,1.1-1.2,2
				c-0.5,1.5-0.6,5,0,6.2c0-1.2,0.4-3.6,1.8-3.9c0.5-0.1,1,0.3,1.6,0.5c0.8,0.2,1.6,0.3,2.3,0.6
				C116.2,112.3,113.9,109.6,116.8,107.6z"/>
			<path class="st1" d="M580.2,116.9c0.7,0.6,1.4,0.9,2.3,1.1C582.2,117.2,580.8,117.1,580.2,116.9z"/>
			<path class="st1" d="M580.2,116.9c-0.1-0.1-0.1-0.1-0.2-0.2C580,116.8,580,116.8,580.2,116.9z"/>
			<path class="st1" d="M707.4,169.2c1.9-1.4,4-2.8,5.5-4.6c-2.4-3.3-3.6-8.5-3.1-12.5c2.6,0.8,6.6,1.1,9.3,1.2
				c-0.2-1.7,0.6-3.4,1.9-4.4c-3-4.9-9-7.1-13.3-10.6c-3.4-2.8-5.2-10.8-9.6-11.8c-0.7,0.6-0.9,1.2-1.5,3.4
				c-0.2-0.7-0.2,0.9,0.2,1.9c2.3,2.9,2,3.6,2.5,7.2c0.6,4.6,1.2,6.4,3.2,10.4c1.3,2.5,2.8,6,3.5,8.8
				C706.9,161.6,705.5,166.7,707.4,169.2z"/>
			<path class="st1" d="M622.5,167.8l-0.4-0.4c-2.2,1.7-2.2,4.6-4.4,6.9c0.7,2.5,2.1,8.8,3.9,10.5c0.5-1.6,0.4-3.6,1-5
				c0.4-0.9,2.2-2.9,2.3-3.6C625.1,173.2,620.5,169.8,622.5,167.8z"/>
			<path class="st1" d="M633.7,163.3c0,0.2,0.1,0.4,0.3,0.7C634.2,163.7,634.2,163.4,633.7,163.3z"/>
			<path class="st1" d="M630.1,171c0.2,2,2.4,2.9,2.8,4.5c0.7,2.4-0.4,6.1-1.4,8.4c3.5-3.8,3.8-9.6,7.2-13.8c-0.8-1.9-3.7-4.5-4.7-6
				C633.4,165.4,629.8,168.5,630.1,171z"/>
			<path class="st1" d="M653.1,151.6l-9.4,2.2c-4.7,2.7,0.9,6.2,1.8,8.3c1.2,2.6,0.9,9-0.1,11.8c2.1-2,3.6-4,4.1-6.8
				c0.6-3.4-1.1-3.7-1.9-6C645.3,155.4,649.7,155.2,653.1,151.6z"/>
			<path class="st1" d="M662.1,147.1l0.1,0.2c-3.6,0.4,0.4,6.4,0.3,9.1c-0.1,2.4-1.1,6.8-2.5,8.7c1.5-1.1,4.3-2.6,5.4-4.3
				c1-1.7,0.1-4.6,1.2-6.4c1.7-2.8,3.5-1.5,5.4-3.2c2-1.7,1.4-2.6,2.2-5.3c-1.8-0.1-5.4-1.2-6.5-1.2
				C665.6,144.8,664,146.1,662.1,147.1z"/>
			<path class="st1" d="M578.8,188.9c0,0,6.5-1.3,7.9-1.7c6.5-1.8,10.5-0.4,17.3-0.4c2.3,5.8,0,11.7-3.5,16.1
				c4.7-2.8,8.5-6.9,7.6-12.8c-0.7-4.9-0.7-8.2-5.8-8.8c1.2-4.2,7.3-4.9,8-9.8l-24.8,12.5C584.6,183.8,578.8,188.9,578.8,188.9z"/>
			<path class="st1" d="M482.6,217.7h-0.9c-2,2.7-4.8,4.8-8.5,5.5c1.6,1.1,4.1,0.8,6.2,0.9c0.1,3.2-0.8,5.8-0.9,8.8
				c2.3-2.3,4.7-4.3,7-6.6c3.9-3.8,2.4-3.4,2-8.5C486,218.3,484,218.3,482.6,217.7z"/>
			<path class="st1" d="M520.3,206.8c-2.2,0.8-4.2,2.7-6.1,3.7c1.3,1.1,2.9,1.7,4.6,1.6c0.8,2.1,1.5,6.5,3,7.9
				c2.3,2.1,6.1-0.7,5.1,5.2c1.7-6.2,1.8-5.9-1.2-11C524,211.2,524.5,207.5,520.3,206.8z"/>
			<path class="st1" d="M564,212.6c-2-3-0.6-1.7-1.3-4.9c-0.9-4-2.5-6.6-7.4-6.1c-0.4-4-4.4-3.2-8.1-4.2c-1.5,0.4-2.8,1.4-3.3,2.8
				c6.4,1.1,14.5,6.5,14.2,13.7c5.4,0.3,5.3,1,8.8,4.3C567.6,215.1,565.3,214.7,564,212.6z"/>
			<path class="st1" d="M664.9,182.5c-0.5-4.1-7.1-8.9-6.6-9.2c-4.9,2.4,0.1,10.2-0.9,14.4c-0.8,3.3-3.2,6.7-4.1,10.2
				c-1,4-2,7.9-3.5,11.7c2.4-2.8,5.7-3.6,8.6-5.6c2-1.4,3.7-3.5,5.6-5c-1.5,0.1-3.1-0.3-4.6-0.2C659.7,192.9,665.7,189,664.9,182.5z
				"/>
			<path class="st1" d="M727.6,187c-2-0.7-4.8,0.2-6.5-0.7c-0.1,0-3.5-4.5-3.8-4.9c-2.4-3.4-2.5-7.2-1.6-11
				c-2.4,1.6-4.6,3.2-7.3,3.9c0,0.6-0.2,1.2-0.2,1.7c-0.8,1-0.2-0.5-0.4-0.4c-1,2.2-3.4,6.5-3.3,8.7c0.2,4.1,4.3,5.3,6.7,8.3
				c2.1,2.6,3.3,5.5,3.7,9c0.3,2.8-0.9,6.1,0.1,8.5c3.7-2.5,6.1-7,9.2-10.3c-1.6,0.6-3.5,1.8-5.5,1.8c-0.3-2.4,1.5-4.6,0.9-7.1
				c-0.4-1.6-3.1-2.2-2.9-4.2C717.3,186.8,724.8,186.8,727.6,187z"/>
			<path class="st1" d="M610.2,118.1c0,0,0.1,0.1,0.1,0.1C610.4,118.1,610.3,118.1,610.2,118.1z"/>
			<path class="st1" d="M609.6,123.6c-0.1,0.4,0.2,1.2,0.3,1.6c0.4,1.1,1.3,2.1,1.7,3.2c0.5,1.4,0.3,3.1,1,4.3
				c0.2-3.1,1.8-6.9,1.1-10c-0.3-1.4-1-1.1-1.9-2.1c-0.6-0.7-0.9-1.7-1.6-2.4c-0.1,0.1-0.2,0.2-0.4,0.5c-0.1,1.2,0.9,2.3,0.6,3.4
				C610.4,122.7,609.7,122.9,609.6,123.6z"/>
			<path class="st1" d="M642.5,151.9c-0.4-1.3,0.1-2.3-0.5-3.6c-0.9-2-3.1-2.1-5.2-2c-0.9,0.1-4.3,1.1-4.2-1.1c0-1,2-1.4,2.2-2.5
				c0.1-0.4-0.5-1.2-0.5-1.6c-0.2-1.4,1.3-3.4,2.6-4.1c1.4-0.7,4.8,0,6,0.9c-0.6-1.1-1.3-1.9-2.1-2.8c-0.6-0.6-0.9-1.5-1.4-2
				c-0.6-0.7-1.6-1-2.4-1.2c-1.7-0.4-1.8-0.5-2.9-1.9c-0.9-1.1-2.1-1.5-2.3-1.2c0.7,0.6,1.3,1.4,1.5,2.3c-2,1.2-4.7,1.9-4.1,4.6
				c0.3,1.6,1.2,3.3,1.4,4.8c0.4,2.8-2.1,2.5-4.2,2.6c-3,0.2-6.7,2.6-9.5,1.7c-1.1-0.4-1.8-0.9-3-0.9c-0.9,0-1.2,0-1.8-0.3
				c-2-0.7-3.3-2.6-4.8-3.8c0.4,1.2,0.8,3.3-0.4,4.1c-0.5-0.5-1.1-0.8-1.8-1c-1.6-1.7-3.1-3.5-4.4-5.3c-1.5-2.2-2.8-4.6-4.2-6.9
				c0.1-0.2,0.2-0.4,0.3-0.7c0.5-1.6,0.8-3.3,0.9-4.9c0-1.9,0.1-3.4,0.5-5.2c0.3-1.3,0.6-2.4,0.3-3.7c0.2,0.1,0.7,0,0.9,0.1
				c-0.6-2.8-4.9-3.1-5.7-5.5c-0.5,1.3,2.2,3.1,2.6,4.7c0.4,1.7,0.1,2.9-1.5,3.6c0.9,2.8,1.3,4-2.2,3.7c-0.7-0.1-1.4-0.2-2-0.4
				c-3.6-3.8-6-4-7.8-4.5c0.1,0.2,0,0.5-0.2,0.9c-0.3,0,1.2,1.2,0.9,1.3l1.1,0.9c2.2,3.7-0.6,4.1-3.5,5c1.6,4.7-1.7,6.9-1.8,11.5
				c4.6,1.1,7.7,8.6,9.6,12.4c3.1,6.3,0.3,14,2.6,20.4c0.6-4.2,5.9-6.9,5.4-11.1c4.4,0,10,4.2,12.5,7.5c-1.3-9.4,14.3-1.3,15.7-5.1
				c0.8,0.3,1.6,0.6,2.1,0.5c1.7-0.3,3.4-2.7,4.7-3.7c2.1-1.7,5.1-2,7.6-2.9c1-0.3,1.9-0.7,2.8-1.3
				C643.5,153.2,643,153.5,642.5,151.9z"/>
			<path class="st1" d="M273.5,142.6h-0.9c5.8-0.1,6.7,14.1,7.5,19.6c2.1-7.7,1.5-18.6,7.8-24.2c3,0.5,5.7,1.9,8.1,4.3
				c-0.7-6.5-7.3-11.2-7.6-17.5C284,126.5,275.4,137.5,273.5,142.6z"/>
			<path class="st1" d="M386,171c-4.9-1.9-5.6-7.9-7.6-11c-3.4-5.5-5.9-12-9.3-17.4c-1.2,5.9,2.9,10.1,2.6,11.3
				c0.8,3.7-1.4,11.2-0.8,13.4c1.1,4.1,4.1,4.7,6.5,8.2c5.1,7.6,6.1,16.6,7.4,25.3c2.1-6-0.9-11.3,0.4-17.6c3-0.1,4.4,0,6.5,3.3
				c3.7-6.1,12,0.7,14.2,5.7c-3.4-7.3-5.8-13.9-8.8-21.3C393.2,170.8,389.6,172.5,386,171z"/>
			<path class="st1" d="M51.3,134c-1.3,1-2.7,0.3-3.8,2.5c-6.8-8-13.2,6.6-18.1,0.5c-1.1,1.3-2.4,2.3-2.9,4.5
				c-0.4,0.1-0.6-0.1-0.7-0.5c-3.7,6.2,2.3,6.2-2,11.5c1.5-0.6,0.1-0.2,3-2.7c1.1-1,2.2-1.5,3-2.4c1.7-1.9,2.1-1.7,3.9-2.2
				c4.6-1.1,3.1-3.4,5.5-5.1C44.3,136.5,44,142.4,51.3,134z"/>
		</g>
		<g>
			<path class="st1" d="M465.6,111.7c0.9,1,1.8,2,2.7,3c1,1,2,1.8,3.1,2.6c2.2,1.6,4.7,2.8,7.2,3.7c1.3,0.4,2.6,0.8,4,0.9
				c0.7,0.1,1.3,0.2,2.1,0.1c0.7,0,1.4-0.1,2-0.2c1.3-0.1,2.6-0.3,3.8-0.1c0.6,0.1,1,0.3,1.3,0.8c0.4,0.5,0.7,1.1,1.3,1.6
				c1.1,0.9,2.5,1.4,3.8,1.7c1.3,0.4,2.5,0.8,3.4,1.6c1.9,1.6,3.2,4,4.9,6.1c0.8,1.1,1.7,2.1,2.8,3c1,0.9,2.2,1.6,3.4,2.2
				c2.3,1.3,4.8,2.3,6.9,3.9c1,0.8,1.8,1.8,2.5,2.9c0.7,1.1,1.4,2.2,2.1,3.3c1.4,2.3,2.9,4.5,4.8,6.4c3.7,3.8,8.3,6.6,11.9,10.6
				c-3.4-4.1-8-7-11.6-10.9c-1.8-1.9-3.2-4.1-4.6-6.4c-0.7-1.1-1.3-2.3-2.1-3.4c-0.7-1.1-1.5-2.2-2.6-3.1c-2.1-1.7-4.6-2.8-6.9-4.1
				c-1.2-0.6-2.2-1.3-3.2-2.2c-1-0.8-1.8-1.8-2.6-2.9c-1.6-2.1-2.8-4.5-5-6.3c-2.3-1.9-5.3-1.8-7.1-3.4c-0.4-0.4-0.7-0.9-1.2-1.5
				c-0.2-0.3-0.5-0.6-0.9-0.8c-0.3-0.2-0.7-0.4-1.1-0.4c-1.5-0.3-2.8-0.1-4.1,0c-0.7,0.1-1.3,0.1-1.9,0.2c-0.6,0-1.2-0.1-1.9-0.1
				c-1.3-0.2-2.5-0.5-3.7-0.9c-2.4-0.8-4.8-2.1-6.9-3.6c-1-0.7-2-1.6-2.9-2.5c-0.9-0.9-1.7-1.9-2.6-2.9c-0.9-1-1.8-2-2.9-2.9
				c-0.3-0.2-0.6-0.5-0.8-0.6c-0.3-0.2-0.6-0.4-1-0.6c-0.7-0.3-1.4-0.5-2.1-0.7c-1.4-0.3-2.7-0.3-3.9-0.6c-0.1,0-0.2-0.1-0.4-0.1
				c-0.2-0.1-0.3-0.1-0.4-0.2c-0.2-0.1-0.2-0.1-0.2-0.3c0-0.1,0-0.2-0.1-0.5c0-0.2-0.2-0.6-0.6-0.8c-0.3-0.2-0.6-0.3-0.8-0.3
				c-0.1,0-0.2,0-0.3,0l-0.1,0l-0.1,0l-0.1,0l-0.2,0c-0.5,0.1-0.9,0.3-1.3,0.5c-0.3,0.2-0.6,0.4-0.9,0.7c-0.5,0.5-1,0.9-1.5,1.3
				c-0.1,0.1-0.2,0.2-0.3,0.2l-0.2,0.1c0,0-0.1,0-0.1,0c0,0-0.1,0-0.2,0.1l0,0l0,0c-0.1,0-0.1,0-0.2,0c-0.4-0.1-0.8-0.6-1.7-0.9
				c-0.1,0-0.2-0.1-0.4-0.1c-0.2,0-0.4,0-0.4,0c-0.3,0-0.4,0.1-0.7,0.1c-0.4,0.1-0.8,0.3-1.1,0.5c-0.6,0.4-1.2,0.9-1.7,1.3
				c-0.8,0.7-1.5,1.4-2.3,1.8c-1.6-2.9-3.6-5.3-5.2-8c-0.4-0.7-0.8-1.4-1.1-2.2c-0.3-0.8-0.7-1.5-1-2.3c-0.3-0.8-0.6-1.6-1.1-2.4
				c-0.3-0.6-0.7-1.2-1.2-1.7c0.3,0.1,0.7,0.1,1,0.1c0.9-0.1,1.7-0.4,2.5-0.7c1.6-0.7,3-1.7,4.4-2.6c1.4-1,2.8-2,4.1-3.1l2-1.6
				c0.7-0.5,1.3-0.9,2.1-1.4c1.4-0.9,2.9-1.7,4.4-2.7c0.7-0.5,1.4-1,2.1-1.5c0.7-0.5,1.4-1.1,2-1.7c0.3-0.3,0.6-0.6,0.9-1
				c0.3-0.3,0.6-0.7,0.8-1c0.5-0.7,1-1.4,1.5-2.1c0.6-0.9,1.2-1.7,1.8-2.6l0,1.5l1.3-0.7c2-1.1,4-2.1,6-3.3c1.7-1.1,3.3-2.3,4.8-3.7
				c0,0.1,0.1,0.1,0.1,0.2c0.2,0.3,0.3,0.7,0.5,1.1c0.3,0.8,0.6,1.9,1.2,2.8l0.6,0.9l0.7-0.8c1-1.1,2.3-2.1,3.6-3
				c1.2-0.8,2.4-1.5,3.6-2.1c0.3,0.4,0.6,0.7,0.9,1c0.5,0.5,1,1,1.6,1.3c0.1,0.1,0.3,0.2,0.5,0.3c0.2,0.1,0.4,0.1,0.5,0.2
				c0.4,0.1,0.8,0.2,1.2,0.1c0.2-0.1,0.4-0.1,0.6-0.2c0.2-0.1,0.4-0.2,0.5-0.3c0.1-0.1,0.1-0.1,0.2-0.2l0.1,0.2l0.6,0.9
				c0.4,0.6,0.9,1.1,1.4,1.7c0.2,0.3,0.5,0.5,0.8,0.8c0.3,0.3,0.5,0.5,0.8,0.7c0.5,0.5,1.1,0.9,1.7,1.3c1.1,0.9,2.3,1.7,3.5,2.4
				c1.2,0.8,2.4,1.5,3.6,2.2c-0.3,0.3-0.7,0.4-1.1,0.5c-0.5,0.1-1,0.1-1.6,0.4c-0.1,0.1-0.3,0.2-0.4,0.2c-0.1,0.1-0.2,0.1-0.3,0.3
				c-0.2,0.2-0.3,0.4-0.5,0.7c-0.5,0.9-0.7,1.9-1,2.9c-0.2,1-0.4,2-0.9,2.9c0.6-0.8,0.8-1.9,1.1-2.8c0.3-1,0.6-1.9,1.1-2.7
				c0.1-0.2,0.3-0.4,0.4-0.5c0-0.1,0.2-0.1,0.3-0.2c0.1-0.1,0.2-0.1,0.3-0.1c0.4-0.2,0.9-0.2,1.4-0.2c0.5,0,1.1-0.2,1.6-0.6
				c0.2-0.2,0.4-0.4,0.6-0.6c0,0,0.1-0.1,0.1-0.1l0.3,0.3c0.2,0.2,0.5,0.4,0.8,0.7c0.5,0.4,1.1,0.8,1.7,1.1c1.2,0.7,2.4,1.2,3.5,1.7
				c0.6,0.2,1.2,0.5,1.7,0.8c0.6,0.3,1.1,0.6,1.6,0.9l0.7,0.5l0.6,0.6l0.5,0.7l0.5,0.7l0.4,0.6l0.6-0.3c0.3-0.1,0.5-0.3,0.8-0.4
				c0.2-0.2,0.5-0.4,0.7-0.6c0.4-0.5,0.6-1,0.8-1.5c0.1-0.5,0.3-0.9,0.4-1.3c0,0,0,0,0,0c0.4,0.3,0.7,0.6,1.1,0.9
				c0.7,0.6,1.5,1.1,2.2,1.6l2.2,1.5c0.4,0.3,0.7,0.5,1.1,0.8c0.2,0.1,0.3,0.3,0.5,0.4c0.1,0.1,0.1,0.1,0.2,0.2c0,0,0,0,0,0
				c0,0,0,0,0-0.1c0-0.1,0-0.1,0-0.2l0.3,0.6c1.6,1.3,3.4,2.2,5.1,3.1c1.7,0.9,3.5,1.7,5,2.7l0.6,0.4c0.2,0.1,0.4,0.3,0.6,0.4
				c0.3,0.3,0.7,0.6,1,0.9c0.7,0.6,1.3,1.3,2,2c1.3,1.4,2.6,2.9,4.2,4.2l1,0.8l0.3-1.3c0-0.1,0.2-0.5,0.5-0.8
				c0.1-0.1,0.1-0.2,0.2-0.3c0.2,0.2,0.4,0.3,0.7,0.4c0.5,0.3,1.1,0.6,1.6,0.8c1.1,0.5,2.2,0.8,3.3,1.1c2.2,0.5,4.3,0.7,6.6,0.6
				c0.1,0.2,0.2,0.4,0.3,0.5c0.2,0.3,0.4,0.5,0.6,0.8c0.4,0.5,0.8,1,1.2,1.5c0.9,0.9,1.8,1.8,2.8,2.5c0.5,0.4,1,0.8,1.5,1.1
				c0.5,0.3,1.1,0.7,1.6,0.9c0.3,0.1,0.6,0.3,0.9,0.4c0.3,0.1,0.6,0.2,0.9,0.3c0.3,0.1,0.6,0.1,0.9,0.2c0.2,0,0.3,0,0.5,0
				c-0.3,0.3-0.7,0.5-1,0.8c-0.6,0.5-1.2,1.1-1.8,1.6c-0.3-0.1-0.7-0.2-1-0.2l-0.6-0.1l-0.3,0.6c-0.6,1.4-1.4,2.8-2.3,4.1
				c-0.5,0.6-0.9,1.3-1.5,1.8c-0.5,0.6-1.1,1.1-1.6,1.7c-0.6,0.5-1.2,1-1.8,1.5c-0.6,0.5-1.3,0.9-2,1.3c-0.7,0.4-1.3,0.7-2.1,1
				c-0.7,0.3-1.6,0.7-2.3,1.1c-0.7,0.5-1.4,1-2.1,1.5c-0.6,0.5-1.3,1.1-1.9,1.7c-1.2,1.1-2.3,2.4-3.4,3.6c-2.1,2.5-4.1,5.1-5.9,7.9
				c2.2-2.4,4.4-4.8,6.7-7.1c0.6-0.6,1.2-1.1,1.7-1.7c0.6-0.5,1.2-1.1,1.8-1.6c0.6-0.5,1.2-1,1.9-1.5c0.6-0.5,1.3-0.9,1.9-1.3
				c0.7-0.4,1.3-0.6,2.1-0.9c0.8-0.3,1.6-0.7,2.3-1.1c0.7-0.4,1.5-0.9,2.2-1.4c0.7-0.5,1.4-1,2-1.6c0.6-0.6,1.2-1.2,1.8-1.8
				c0.6-0.6,1.1-1.3,1.6-2c0.5-0.7,0.9-1.4,1.3-2.2c0.3-0.5,0.5-1.1,0.8-1.7c0.5,0.1,1.1,0.3,1.6,0.5c0.8,0.3,1.5,0.6,2.3,0.9
				c1.6,0.6,3.1,1.3,4.8,1.8c0.4,0.1,0.8,0.2,1.3,0.3c0.2,0,0.5,0.1,0.7,0.1l0.3,0c0.1,0,0.2,0,0.3,0c0.3,0,0.7,0.1,1.1,0.2
				c0.4,0.1,0.8,0.3,1.2,0.4c0.8,0.3,1.6,0.6,2.4,0.9c0.8,0.3,1.7,0.5,2.5,0.4c-0.8,0-1.6-0.3-2.4-0.7c-0.7-0.4-1.5-0.8-2.2-1.2
				c-0.4-0.2-0.8-0.4-1.2-0.5c-0.4-0.2-0.8-0.3-1.3-0.4c-0.1,0-0.2,0-0.3,0l-0.2,0l-0.1,0c-0.2,0-0.3,0-0.5-0.1
				c-0.4-0.1-0.7-0.2-1.1-0.4c-1.5-0.6-3-1.3-4.5-2.1c-0.8-0.4-1.5-0.7-2.3-1.1c-0.4-0.2-0.9-0.3-1.4-0.5c0.6-0.5,1.2-0.9,1.8-1.4
				c0.7-0.5,1.5-1.1,2.2-1.5c0.4-0.2,0.8-0.5,1.1-0.5c0.4-0.1,0.8-0.1,1.2,0c1.7,0.2,3.4,0.8,5.3,1.1c1.9,0.2,3.7,0.2,5.5,0.1
				c1.8,0,3.6-0.1,5.3,0.2c1.7,0.3,3.2,1,4.4,2.2c0.6,0.6,1.1,1.3,1.7,2c0.6,0.7,1.3,1.5,2.4,1.9c1.1,0.4,2.1,0.3,3,0.3
				c0.9,0,1.8,0,2.7,0c0.9,0,1.8,0,2.5,0.2c0.8,0.1,1.4,0.4,2,1c0.6,0.5,1.3,1.2,1.8,1.8c0.1,0.2,0.3,0.6,0.5,1
				c0.2,0.4,0.3,0.9,0.6,1.4c0.3,0.5,0.6,0.9,1.1,1.3l0.2,0.1l0.3,0.1c0.2,0.1,0.3,0.1,0.4,0.2c0.3,0.1,0.5,0.1,0.8,0.2
				c0.9,0.2,1.8,0.3,2.3,0.6c0.6,0.4,1.1,0.9,1.6,1.6c0.5,0.7,1,1.5,1.9,2.3c0.8,0.7,1.8,1.2,2.9,1.3c0.4,0.1,1,0.1,1.5,0.1
				c0.5,0,1,0,1.5-0.1c1.9-0.2,3.6-0.6,5.2-0.3c0.4,0.1,0.8,0.2,1.1,0.3l0.3,0.1c0,0,0.2,0.1,0.3,0.1c0.2,0.1,0.3,0.2,0.4,0.3
				c0.6,0.5,1,1.2,1.8,2c0.4,0.4,0.8,0.7,1.3,1c0.7,0.3,1.2,0.3,1.7,0.3c0.9,0,1.5,0.1,2,0.6l0.5,0.4l0.6-0.5
				c0.1-0.1,0.3-0.2,0.5-0.2c0.3,0,0.6,0,0.9,0.2c0.3,0.1,0.7,0.2,1,0.4c0.3,0.2,0.7,0.3,1,0.5c0.7,0.4,1.3,0.8,2.1,1.2
				c0.2,0.1,0.4,0.2,0.6,0.3l0.6,0.2l1.1,0.4c1.5,0.6,3,1.2,4.6,1.4c0.4,0.1,0.8,0.1,1.2,0.1c0.4,0,0.8-0.1,1.3-0.2
				c0.2,0,0.4-0.1,0.6-0.2c0.2-0.1,0.4-0.2,0.6-0.3c0.3-0.1,0.5-0.3,0.8-0.6c1.3,0.9,2.7,1.9,4,2.9c1.4,1.1,2.7,2.2,4,3.4l0,0l0,0
				c0,0,0.1,0,0.1,0c0,0,0.1,0,0.1-0.1c0,0,0-0.1,0-0.1c-0.1-0.1-0.1-0.1-0.2-0.1c-0.1,0-0.2-0.1-0.3-0.1c-2.2-2.5-4.9-4.5-7.5-6.6
				l-0.2-0.2l-0.3,0.2c-0.3,0.2-0.6,0.4-0.9,0.6c-0.2,0.1-0.3,0.2-0.5,0.2c-0.2,0-0.3,0.1-0.5,0.1c-0.3,0.1-0.7,0.1-1.1,0.1
				c-0.4,0-0.7,0-1.1-0.1c-1.5-0.2-2.9-0.9-4.3-1.5l-1.1-0.5c-0.2-0.1-0.4-0.1-0.5-0.2c-0.1-0.1-0.3-0.1-0.5-0.2
				c-0.6-0.4-1.3-0.8-2-1.2c-0.3-0.2-0.7-0.4-1.1-0.6c-0.4-0.2-0.7-0.4-1.2-0.5c-0.4-0.2-0.9-0.3-1.4-0.3c-0.3,0-0.7,0.1-1,0.2
				c-0.3-0.2-0.7-0.4-1-0.5c-0.5-0.2-1.1-0.2-1.5-0.2c-0.4,0-0.8-0.1-1-0.2c-0.3-0.1-0.6-0.4-0.9-0.7c-0.5-0.5-1-1.4-1.8-2.1
				c-0.2-0.2-0.4-0.4-0.7-0.5c-0.1-0.1-0.2-0.1-0.3-0.2l-0.4-0.2c-0.5-0.2-1-0.4-1.5-0.5c-2-0.4-3.9,0-5.7,0.2
				c-0.4,0-0.9,0.1-1.3,0.1c-0.4,0-0.7,0-1.2-0.1c-0.7-0.1-1.4-0.5-2-0.9c-1.1-0.9-1.8-2.9-3.8-4.1c-1.1-0.6-2.1-0.6-2.9-0.8
				c-0.4-0.1-0.8-0.2-0.9-0.3c-0.2-0.1-0.4-0.4-0.6-0.7c-0.2-0.3-0.3-0.7-0.5-1.1c-0.2-0.4-0.3-0.9-0.7-1.5
				c-0.7-0.8-1.3-1.4-2.1-2.1c-0.8-0.6-1.8-1.1-2.8-1.3c-1-0.2-2-0.2-2.9-0.2c-0.9,0-1.8,0.1-2.7,0.1c-0.9,0-1.8,0.1-2.3-0.2
				c-0.6-0.2-1.2-0.8-1.8-1.5c-0.6-0.6-1.1-1.4-1.9-2.1c-1.4-1.4-3.4-2.2-5.3-2.5c-1.9-0.3-3.8-0.1-5.6,0c-1.8,0.1-3.6,0.3-5.3,0.1
				c-1.7-0.2-3.5-0.8-5.4-0.9c-0.5,0-1,0-1.5,0.1c-0.5,0.2-0.9,0.4-1.3,0.7c-0.4,0.3-0.8,0.5-1.1,0.8c-0.2,0-0.4,0-0.5-0.1
				c-0.3-0.1-0.6-0.1-0.9-0.3c-0.3-0.1-0.6-0.2-0.8-0.4c-0.3-0.1-0.5-0.3-0.8-0.4c-0.5-0.3-1-0.7-1.5-1c-0.5-0.4-1-0.8-1.4-1.2
				c-0.9-0.8-1.8-1.7-2.5-2.6c-0.4-0.5-0.7-1-1.1-1.5c-0.2-0.2-0.3-0.5-0.5-0.8c-0.2-0.3-0.3-0.5-0.4-0.8l-0.2-0.3l-0.3,0
				c-1.1,0-2.2-0.1-3.3-0.2c-1.1-0.1-2.2-0.3-3.2-0.6c-1.1-0.3-2.1-0.6-3.1-1.1c-0.5-0.2-0.9-0.5-1.4-0.8c-0.4-0.3-0.8-0.6-1.2-0.9
				l-1-0.9l-0.3,1.3c0,0.1-0.2,0.5-0.5,0.8c0,0.1-0.1,0.1-0.1,0.2c-1.1-1-2.1-2.2-3.2-3.4c-0.6-0.7-1.3-1.5-2.1-2.1
				c-0.4-0.3-0.7-0.7-1.2-1c-0.2-0.2-0.4-0.3-0.6-0.4l-0.6-0.4c-1.7-1.1-3.5-2-5.2-2.8c-1.6-0.8-3.3-1.7-4.6-2.8c0,0,0,0,0,0
				c-0.1-0.1-0.1-0.2-0.2-0.3c-0.1-0.1-0.2-0.2-0.3-0.3c-0.2-0.2-0.4-0.3-0.6-0.5c-0.4-0.3-0.8-0.6-1.1-0.8l-2.3-1.5
				c-0.7-0.5-1.5-1-2.2-1.5c-0.3-0.3-0.7-0.5-1-0.8c-0.3-0.3-0.6-0.6-0.7-0.8l-0.8-1.2l-0.7,1.2c-0.6,1-0.7,2.1-1,2.9
				c-0.1,0.4-0.3,0.8-0.5,1c-0.1,0.1-0.2,0.2-0.3,0.3l-0.1-0.2l-0.7-0.8l-0.8-0.7c-0.3-0.2-0.6-0.4-0.9-0.6
				c-0.6-0.4-1.2-0.7-1.8-0.9c-0.6-0.3-1.2-0.5-1.8-0.7c-1.2-0.5-2.4-0.9-3.5-1.4c-0.5-0.3-1.1-0.6-1.6-0.9l-0.7-0.6l-0.6-0.6
				l-0.5-0.5l-0.3,0.6c-0.1,0.2-0.2,0.4-0.3,0.6c-0.1,0.2-0.2,0.4-0.4,0.5c0,0,0,0,0,0c-2.2-1.7-4.6-3.3-6.7-5.2
				c-0.5-0.5-1-0.9-1.5-1.4c-0.2-0.2-0.5-0.5-0.7-0.7c-0.2-0.3-0.5-0.5-0.7-0.8c-0.5-0.5-0.9-1.1-1.3-1.6l-0.5-0.9l-0.5-0.9
				l-0.4-0.8l-0.6,0.7l-0.3,0.3c-0.1,0.1-0.2,0.2-0.3,0.2c-0.1,0.1-0.2,0.1-0.3,0.2c-0.1,0.1-0.2,0-0.3,0.1c-0.2,0-0.4,0-0.7-0.1
				c-0.1-0.1-0.2-0.1-0.4-0.2c-0.1-0.1-0.2-0.1-0.3-0.2c-0.5-0.3-0.9-0.7-1.3-1.2c-0.4-0.4-0.8-0.9-1.1-1.4l-0.4-0.5l-0.6,0.3
				c-1.5,0.7-3,1.5-4.4,2.4c-1.1,0.7-2.1,1.4-3.1,2.3c-0.2-0.4-0.3-0.9-0.4-1.4c-0.1-0.5-0.3-0.9-0.6-1.4c-0.1-0.2-0.3-0.5-0.5-0.7
				c-0.2-0.2-0.4-0.4-0.7-0.6l-0.6-0.5l-0.6,0.6c-1.5,1.5-3.3,2.8-5.2,4c-1.6,0.9-3.2,1.8-4.8,2.7c-0.1-0.2-0.1-0.4-0.1-0.6l0.1-2.4
				l-1.7,1.8c-1.2,1.3-2.2,2.8-3.1,4.3c-0.5,0.7-0.9,1.4-1.4,2.1c-0.2,0.3-0.5,0.7-0.8,1c-0.3,0.3-0.5,0.6-0.8,0.9
				c-0.6,0.6-1.2,1.1-1.8,1.6c-0.6,0.5-1.3,1-2,1.5c-1.4,1-2.8,1.9-4.3,2.8c-0.7,0.4-1.5,1-2.1,1.5l-1.9,1.7
				c-1.3,1.1-2.6,2.2-3.9,3.3c-1.3,1.1-2.7,2.1-4.1,2.9c-0.7,0.4-1.5,0.7-2.3,0.9c-0.4,0.1-0.8,0.1-1.1,0c-0.1-0.1-0.2-0.3-0.4-0.4
				c-0.7-0.7-1.4-1.2-2-1.7c-0.6-0.5-1.3-1.1-1.9-1.7c-0.6-0.6-1.3-1.2-2-1.7c-0.8-0.6-1.6-1-2.4-1.3c-0.8-0.3-1.6-0.7-2.3-1
				c-0.7-0.4-1.3-0.9-1.9-1.4c-0.6-0.5-1.2-1.1-1.7-1.7c-0.5-0.6-0.9-1.3-1.1-1.9l-0.4-1.5l-1.1,1.1c-0.8,0.8-1.4,1.6-2.2,2.3
				c-0.7,0.7-1.5,1.4-2.3,2c-0.4,0.3-0.8,0.5-1.1,0.6c0,0,0,0-0.1,0l-0.1,0c0,0-0.2-0.1-0.3-0.3c-0.3-0.3-0.6-0.8-0.9-1.2
				c-0.3-0.4-0.6-0.9-0.9-1.3c-0.1-0.1-0.2-0.2-0.3-0.4l-0.2-0.2l-0.2-0.2c-0.2-0.2-0.4-0.4-0.7-0.5l-1.3-1c-0.4-0.3-0.7-0.6-1-1
				c-0.2-0.2-0.3-0.4-0.4-0.6l-0.4-0.6c-1.3-1.8-2.8-3.3-3.4-5l-0.3-0.8l-0.8,0.2c-1,0.2-1.9,0.8-2.5,1.3c-0.6,0.6-1.1,1.1-1.7,1.5
				c-0.3,0.2-0.5,0.3-0.7,0.4c-0.1,0.1-0.2,0-0.3,0.1c-0.1,0-0.2,0-0.3,0l-0.1,0l0,0l0,0l0,0c-0.5-0.1-0.9-0.3-1.3-0.9
				c-0.4-0.5-0.9-1.3-1.7-1.9c-0.8-0.5-1.5-0.9-2.3-1.2c-0.8-0.3-1.4-0.6-1.9-0.9c-0.5-0.4-0.9-0.9-1.3-1.5c-0.8-1.3-1.6-2.6-2.3-4
				c-0.7-1.4-1.5-2.8-2.1-4.1c-1.4-2.8-2.7-5.6-4-8.5l-0.1-0.2l-0.1-0.1l-2.6-2.2l-1.3-1.1l-0.6-0.6c-0.2-0.2-0.5-0.4-0.6-0.5
				c-0.7-0.7-1.4-1.6-2-2.5c-0.6-0.9-1.1-1.9-1.6-2.9l0-0.1l-0.1-0.1c-1.2-1.5-2.3-2.9-3.6-4.2c-1.2-1.4-2.5-2.7-3.9-4l-0.6-0.6
				l-0.6,0.7c-1.2,1.4-2.7,2.7-4.2,4c-0.7,0.6-1.5,1.3-2.2,2c-0.7,0.7-1.4,1.4-2.1,2.2c-0.7,0.9-1.1,1.9-1.5,2.7
				c-0.2,0.4-0.4,0.8-0.7,1.1c-0.2,0.2-0.5,0.4-0.9,0.5c-0.8,0.3-1.9,0.5-2.9,1.2c-0.7,0.5-1.6,1-2.5,1.6c-0.4,0.3-0.9,0.7-1.2,1.1
				c-0.2,0.2-0.4,0.4-0.5,0.7c-0.1,0.1-0.1,0.2-0.2,0.4l-0.1,0.2l-0.1,0.2c-0.4,1-0.7,1.9-1,2.9c-0.1,0.5-0.3,0.9-0.4,1.5
				c-0.1,0.5-0.2,0.8-0.4,1.2c-0.2,0.4-0.5,0.8-0.8,1.3c-0.3,0.5-0.4,1.1-0.5,1.6c-0.2,1-0.3,2-0.4,2.9c-0.2,0.9-0.4,1.8-0.8,2.5
				c-0.5,0.7-1.2,1.4-1.9,2.1c-0.6,0.6-1.1,1.2-1.6,2c-0.1,0-0.1,0-0.2-0.1c-0.3,0-0.6-0.1-0.9,0c-0.6,0-1.2,0.4-1.6,0.7
				c-0.8,0.7-1.4,1.6-1.8,2.4c-0.5,0.8-0.9,1.7-1.4,2.4c-0.4,0.7-1.1,1.4-1.7,2l-3.8,4.1c-0.6,0.7-1.3,1.4-1.9,2.1
				c-0.6,0.7-1.2,1.5-1.8,2.1c-1.2,1.2-3,1.9-4.6,3c-0.8,0.6-1.5,1.3-2,2.1c-0.5,0.8-0.9,1.7-1.3,2.5c-0.4,0.8-0.8,1.7-1.2,2.5
				c-0.1,0.2-0.2,0.4-0.3,0.6c-0.1-0.5-0.4-0.9-0.7-1.3c-0.5-0.6-1-1.1-1.4-1.7c-0.8-1.2-1.4-2.6-2.1-3.9c-1.4-2.6-3-5.2-5.3-7.2
				l-0.2-0.2l-0.2,0.1c-0.1,0-0.4-0.1-0.7-0.3c-0.3-0.2-0.5-0.5-0.8-0.7c-0.5-0.5-1.1-1-1.6-1.5c-0.6-0.5-1.2-1-2-1.3
				c-0.4-0.1-0.9-0.2-1.4-0.1c-0.2,0-0.3,0.1-0.4,0.2c-0.1-0.5-0.4-0.9-0.6-1.3c-0.4-0.7-0.8-1.3-1.3-1.8l-0.5-0.7l-0.4,0.8
				c-0.2,0.4-0.6,0.6-1,1c-0.3-0.4-0.7-0.8-1.2-1.1c-0.7-0.4-1.3-0.7-2-0.9c-0.6-0.3-1.2-0.5-1.6-0.9c-0.4-0.4-0.7-0.9-1-1.4
				c-0.2-0.5-0.2-1.2-0.3-1.9c-0.1-0.7-0.1-1.4-0.5-2.2c-0.2-0.4-0.5-0.8-0.8-1c-0.3-0.3-0.6-0.5-0.8-0.7c-0.3-0.2-0.5-0.4-0.8-0.6
				c-0.1-0.1-0.2-0.1-0.2-0.2c0-0.1-0.1-0.2-0.1-0.3c-0.1-0.3-0.2-0.8-0.6-1.2c-0.1-0.1-0.1-0.1-0.2-0.2l-0.1-0.1
				c-0.1-0.1-0.3-0.2-0.4-0.2c-0.2-0.1-0.4-0.2-0.6-0.2c-0.7-0.2-1.5-0.3-2-0.5l0,0c0,0,0,0,0,0c0-0.1-0.1-0.2-0.3-0.4
				c-0.1-0.2-0.3-0.4-0.6-0.6c-0.2-0.1-0.3-0.1-0.5-0.2c0,0-0.3-0.1-0.5,0c-0.6,0-0.9,0.2-1.2,0.3c-0.1,0-0.2,0.1-0.3,0.1
				c-0.1,0-0.1,0-0.3-0.1c-0.2,0-0.3-0.1-0.4-0.1c-0.1,0-0.3-0.1-0.4-0.2c-0.3-0.1-0.5-0.3-0.8-0.4c-0.5-0.3-1-0.8-1.6-1.2
				c-1.1-0.9-2.2-1.8-3.5-2.4l-0.6-0.3l-0.4,0.5c-0.6,0.7-1.3,1.4-2.1,2c-0.8,0.6-1.6,1.2-2.4,1.8c-0.8,0.6-1.8,1.4-2.3,2.4
				c-0.5,1-0.9,1.9-1.4,2.5c-0.6,0.7-1.4,1.4-2.1,2c-0.4,0.3-0.7,0.6-1.1,0.9c-0.2,0.1-0.4,0.3-0.5,0.4c0,0-0.2,0.1-0.3,0.2
				l-0.3,0.1c-0.4,0.1-0.8,0.2-1.3,0.3c-0.5,0.1-1.1,0.2-1.7,0.5c-1.1,0.5-2,1.4-2.7,2.1c-0.7,0.8-1.3,1.6-1.9,2.3
				c-0.3,0.3-0.7,0.7-1,0.9c-0.4,0.3-0.8,0.5-1.2,0.8c-0.9,0.5-1.8,1.1-2.6,1.9c-0.9,1-1.2,1.9-1.7,2.7c-0.2,0.4-0.5,0.8-0.7,0.9
				c-0.3,0.2-0.7,0.3-1.1,0.5c-0.9,0.2-1.9,0.3-3,0.7c-0.5,0.2-1.1,0.4-1.6,0.7c-0.5,0.3-0.9,0.6-1.3,0.9c-0.4,0.3-0.9,0.7-1.3,1.3
				c-0.2,0.3-0.4,0.7-0.5,1.1c-0.2,0-0.4,0-0.6,0.1c-0.4,0.1-0.9,0.2-1.3,0.3c-0.9,0.3-1.7,0.7-2.4,1.2c-1.3,0.9-2.3,2.1-3.1,3.4
				c-0.7-0.2-1.4-0.3-2.1-0.5c-0.4-0.1-0.9-0.2-1.3-0.3c-0.4-0.1-0.8-0.2-1.2-0.4c-0.8-0.3-1.6-0.6-2.4-1.1
				c-0.4-0.2-0.7-0.4-1.1-0.7c-0.4-0.3-0.7-0.5-1.1-0.8c-0.2-0.1-0.4-0.3-0.6-0.4c-0.2-0.1-0.5-0.3-0.7-0.4
				c-0.4-0.2-0.9-0.4-1.4-0.6c-0.9-0.3-1.9-0.5-2.8-0.6c-0.9-0.1-1.8-0.2-2.7-0.4c-0.4-0.1-0.9-0.2-1.3-0.3
				c-0.4-0.1-0.8-0.3-1.2-0.4l-0.5-0.2l-0.3,0.5c-0.7,1.3-1.2,2.7-1.7,4c-0.2,0-0.3,0-0.5-0.1c-0.3-0.1-0.5-0.2-0.8-0.4
				c-0.6-0.3-1.1-0.8-1.8-1.1L190,86l-0.2,0.5c-0.3,0.7-0.8,1.3-1.6,1.7c-0.7,0.4-1.5,0.7-2.4,1c-0.4,0.2-0.8,0.4-1.2,0.5
				c-0.4,0.2-0.8,0.3-1.2,0.6c-0.5,0.3-0.8,0.8-1,1.2c-0.2,0.4-0.3,0.8-0.5,1.3c-0.1,0.4-0.3,0.9-0.4,1.3l-0.3,1.3
				c-0.2,0.9-0.4,1.7-0.7,2.5c-0.1,0.4-0.3,0.8-0.5,1.2c-0.2,0.4-0.4,0.8-0.7,1.1c-0.3,0.3-0.6,0.6-0.9,0.8
				c-0.2,0.1-0.4,0.1-0.6,0.2c-0.2,0-0.4,0-0.6,0l-0.1,0l0,0.1c-0.6,1.1-1,2.3-1.2,3.6c-0.1,0.6-0.1,1.3-0.1,1.9
				c0,0.3,0.1,0.6,0.2,0.9c0,0,0,0.1,0,0.1c-1-0.1-2.1-0.3-3.1-0.3c-0.5,0-1.1,0-1.7,0.3c-0.5,0.3-0.9,0.7-1.1,1.3
				c-0.2,0.5-0.4,1.1-0.6,1.5c-0.2,0.5-0.5,0.9-0.8,1.3c-0.5,0.7-1.2,1.3-1.7,2.1c-1-1.1-2.2-2-3.5-2.8c-1.4-0.9-2.8-1.6-4.3-2.3
				c-1.5-0.7-2.9-1.4-4.4-2c-1.5-0.6-3-1.2-4.5-1.8c-1.5-0.6-2.9-1.2-4.3-2c-0.7-0.4-1.3-0.8-1.9-1.3c-0.6-0.5-1.2-1-1.7-1.5
				c-0.3-0.3-0.5-0.6-0.7-0.9c-0.2-0.3-0.4-0.6-0.6-1c-0.4-0.7-0.8-1.4-1.3-2.1c-0.4-0.7-0.9-1.4-1.5-2.1c-0.6-0.6-1.2-1.4-2.4-1.7
				l-0.7-0.2l-0.4,0.7c-0.2,0.5-0.5,0.9-0.8,1.2c-0.3,0.3-0.7,0.6-1.2,0.9c-0.6,0.4-1,0.8-1.4,1.1c-0.2,0.2-0.4,0.3-0.6,0.4
				c0,0-0.1,0-0.1,0l0,0l0,0l0,0c0,0,0,0,0,0c-0.1-0.1-0.1-0.2-0.3-0.3c-0.2-0.2-0.4-0.3-0.6-0.3c-0.1,0-0.2,0-0.2,0l-0.1,0l-0.1,0
				l-0.1,0c-0.1,0-0.1,0-0.2,0c-0.1,0-0.3,0-0.4,0.1c-0.8,0.2-1.4,0.7-1.8,1.1c-0.5,0.4-0.9,0.8-1.3,1.2c-0.2,0.2-0.4,0.4-0.6,0.5
				c-0.2,0.2-0.4,0.3-0.7,0.4c-0.9,0.6-1.9,1-3,1.6c-0.5,0.3-1,0.4-1.7,1c-0.6,0.5-1,1-1.3,1.6c-0.3,0.5-0.6,1-0.9,1.3
				c-0.1,0.1-0.2,0.2-0.2,0.3c0,0-0.1,0.1-0.1,0.1l-0.2,0.1c-0.2,0.1-0.3,0.3-0.6,0.4c-0.9,0.5-1.9,0.8-3,0.9l-0.2,0
				c-0.1-0.1-0.3-0.3-0.6-0.4c-0.2-0.1-0.4,0-0.6,0l-0.1,0l0,0l-0.1,0l0,0l-0.1,0c-0.1,0.1-0.2,0.1-0.3,0.2l-0.2,0.2
				c-0.1,0.1-0.3,0.2-0.4,0.3c-0.2,0.2-0.4,0.4-0.6,0.7l-1.2,1.3c-0.2,0.2-0.4,0.4-0.5,0.6c-0.2,0.2-0.4,0.4-0.7,0.6
				c-0.2,0.2-0.5,0.5-0.6,0.9c-0.2,0.4-0.2,0.8-0.2,1.1c0.1,0.7,0.1,1.1,0,1.6c-0.1,0.5-0.3,0.9-0.6,1.4c-0.3,0.4-0.6,0.8-1,1.2
				c-0.8,0.8-1.7,1.4-2.6,2.1c-0.9,0.7-1.9,1.4-2.7,2.3c-0.8,0.9-1.4,1.9-2,2.9c-0.5,0.7-1,1.4-1.7,2.1c-0.1-0.1-0.2-0.2-0.4-0.3
				c-0.2-0.2-0.4-0.3-0.6-0.5c-0.3-0.2-0.5-0.3-0.7-0.4c-0.4-0.2-0.9-0.4-1.2-0.6c-0.4-0.2-0.7-0.4-1.1-0.7
				c-0.3-0.3-0.8-0.6-1.2-0.8c-1.7-1-3.4-1.6-4.8-2.6l-0.5-0.4l-0.6,0.3c-0.2,0.2-0.5,0.3-0.7,0.4c-0.2,0.1-0.5,0.2-0.7,0.3
				c-0.2,0.1-0.5,0.1-0.7,0.1c-0.2,0-0.5,0-0.7-0.1c-0.5-0.1-1-0.4-1.6-0.7l-1.7-1l-0.5-0.3l-0.5,0.3c-0.8,0.6-2,0.7-3.4,1
				c-0.3,0.1-0.7,0.2-1.1,0.4c-0.1,0-0.2,0.1-0.3,0.1l-0.2,0.1l-0.5,0.3c-0.6,0.4-1.1,0.8-1.6,1.3c-1,0.9-1.8,1.7-2.9,2.3
				c-1,0.6-2.1,1-3.3,1.4c-1.2,0.4-2.5,0.6-3.7,1.1c-1.3,0.4-2.5,1-3.6,1.8c-1.6,1-2.9,2.2-4.2,3.4c-1-0.3-1.9-0.9-2.8-1.4
				c-0.9-0.6-1.8-1.3-2.7-2l-0.3-0.2l-0.3,0.4c-0.3,0.4-0.7,0.8-1.1,1c-0.4,0.2-0.9,0.4-1.4,0.5c-1,0.2-2.1,0.1-3.2,0
				c-0.6,0-1.1-0.1-1.7,0c-0.3,0-0.6,0-0.9,0.1c-0.3,0-0.6,0.1-0.9,0.2c-1.2,0.3-2.2,0.7-3.2,0.8c-0.5,0.1-1,0.1-1.4,0l-0.3-0.1
				l-0.4-0.1c-0.2-0.1-0.5-0.2-0.7-0.3c-0.5-0.2-1-0.4-1.4-0.7l-0.3-0.2l-0.3-0.2l-0.4-0.3c-0.1-0.1-0.3-0.2-0.7-0.3
				c-0.4-0.1-0.7,0-0.9,0.1c-0.2,0.1-0.4,0.2-0.5,0.2c-0.2,0.1-0.2,0.1-0.4,0.2l-0.4,0.2c-0.6,0.4-1,0.8-1.4,1.2
				c-0.8,0.9-1.5,1.7-2.3,2.2c-0.7,0.5-1.9,0.7-3,1.3c-1.2,0.6-2.1,1.6-2.7,2.5c-1.4,2-2.2,4.1-3.5,5.7c-0.7,0.9-1.4,1.7-2.2,2.5
				c-0.8,0.8-1.6,1.5-2.4,2.3c-1.7,1.5-3.4,2.9-5.1,4.4c1.9-1.2,3.8-2.4,5.7-3.7c0.9-0.7,1.8-1.4,2.7-2.1c0.9-0.7,1.7-1.5,2.5-2.4
				c1.7-1.8,2.6-3.9,3.8-5.6c0.7-0.9,1.4-1.6,2.2-2c0.4-0.2,0.9-0.4,1.5-0.6c0.5-0.2,1.2-0.4,1.7-0.8c1.1-0.7,1.9-1.7,2.6-2.4
				c0.4-0.4,0.8-0.7,1.1-1l0.3-0.2l0.3-0.2c0.1,0,0.1-0.1,0.2-0.1c0.1,0.1,0.2,0.1,0.3,0.2l0.4,0.3l0.4,0.2c0.5,0.3,1.1,0.5,1.6,0.8
				c0.3,0.1,0.6,0.2,0.9,0.3l0.4,0.1c0.2,0,0.3,0.1,0.5,0.1c0.7,0.1,1.3,0,1.9-0.1c1.2-0.3,2.3-0.7,3.3-1c0.2-0.1,0.5-0.1,0.8-0.2
				c0.2,0,0.5-0.1,0.7-0.1c0.5-0.1,1.1-0.1,1.6-0.1c1.1,0,2.3,0,3.5-0.3c0.6-0.1,1.2-0.4,1.7-0.8c0.4-0.3,0.7-0.7,1-1
				c0.8,0.5,1.7,1,2.6,1.5c0.9,0.5,1.9,0.8,3,1c-0.6,0.5-1.2,1.1-1.7,1.6c-0.9,0.9-1.9,1.7-2.8,2.5c-1,0.8-2,1.6-3,2.1
				c-1,0.5-2.2,0.3-3.6,0.4c-0.7,0-1.4,0.1-2.1,0.4c-0.2,0.1-0.3,0.2-0.5,0.3c-0.1,0.1-0.3,0.2-0.4,0.3c-0.3,0.2-0.5,0.4-0.8,0.7
				c-1,1-1.6,2.1-2.4,3.1c-0.4,0.5-0.8,0.9-1.3,1.3c-0.1,0.1-0.2,0.2-0.4,0.3c-0.1,0.1-0.2,0.1-0.4,0.2c-0.3,0.1-0.6,0.1-0.9,0.2
				c-0.3,0-0.7,0.1-1,0.1c-0.3,0.1-0.6,0.3-0.9,0.5c-0.5,0.4-0.9,1-1.3,1.4c-0.8,1-2.1,1.5-2.9,2.5c0.9-1,2.1-1.4,3.1-2.3
				c0.5-0.5,0.9-1,1.4-1.3c0.5-0.4,1.1-0.4,1.7-0.4c0.3,0,0.7,0,1-0.1c0.2,0,0.3-0.1,0.5-0.2c0.1-0.1,0.3-0.2,0.4-0.3
				c0.6-0.4,1-0.9,1.5-1.3c0.9-1,1.6-2.1,2.5-2.9c0.2-0.2,0.5-0.4,0.7-0.5c0.1-0.1,0.3-0.2,0.4-0.2c0.1-0.1,0.3-0.1,0.4-0.2
				c0.5-0.2,1.1-0.3,1.7-0.3c1.2,0,2.6,0.3,4-0.3c1.3-0.6,2.3-1.3,3.4-2.1c1-0.8,2-1.7,3-2.5c1-0.9,1.9-1.7,2.9-2.5
				c1-0.8,2-1.6,3-2.2c1.1-0.7,2.1-1.2,3.3-1.5c1.2-0.4,2.4-0.6,3.7-1c1.3-0.4,2.5-0.8,3.8-1.5c0.3-0.2,0.5-0.3,0.9-0.5
				c0.3-0.2,0.6-0.4,0.8-0.6c0.5-0.4,1-0.9,1.5-1.3c1-0.8,1.9-1.6,2.9-1.8c0.9-0.2,2.2-0.3,3.3-0.9c0,0.2,0.1,0.5,0.1,0.7
				c0.1,0.4,0.3,0.8,0.4,1.3c0.2,0.4,0.4,0.8,0.6,1.2c0.2,0.4,0.4,0.8,0.7,1.2c0.3,0.4,0.7,0.7,1,1c0.3,0.3,0.6,0.6,0.8,0.9
				c0.3,0.4,0.5,0.7,0.8,1.1l0.8,1c0.3,0.4,0.5,0.7,0.8,1c0.2,0.3,0.5,0.7,0.7,1.1l0.7,1.1c0.2,0.4,0.5,0.8,0.8,1.1
				c0.2,0.3,0.5,0.7,0.8,1.1c0.3,0.4,0.6,0.7,1.1,1.1c0.1,0,0.1,0.1,0.3,0.2c0.1,0,0.2,0,0.2,0.1l0.1,0l0,0l0.1,0l0,0l0.1,0
				c0.1,0,0.1,0,0.2,0c0.1,0,0.2-0.1,0.3-0.1c0.3-0.2,0.5-0.4,0.6-0.6c0.2,0.5,0.4,1,0.7,1.5c0.4,1,0.9,1.9,1.7,2.8
				c0.7,0.9,1.6,1.5,2.4,2.1c0.4,0.3,0.7,0.6,1.1,0.9l1,1.1c0.7,0.7,1.1,1.4,1.4,2.2c0.1,0.2,0.1,0.4,0.2,0.6c0,0.2,0.1,0.4,0.1,0.7
				c0,0.2,0,0.1,0,0.2l0,0.3c0,0.3-0.1,0.5-0.1,0.8c0,0.2,0,0.3,0,0.5c0,0,0,0.1,0,0.2l0,0.1c0,0.1,0,0.1,0.1,0.2
				c0.1,0.2,0.1,0.2,0.1,0.2l0,0c0.2,0.2,0.1,0.1,0.1,0.1l0,0l0.1,0.1c0.2,0.2,0.4,0.4,0.8,0.4c0.4,0.1,0.7,0,0.8-0.1
				c0.1,0,0.1,0,0.1,0c0.1,0,0.3,0.1,0.5,0.1c0,0.1,0.1,0.1,0.1,0.1c0.1,0.1,0.1,0.3,0.1,0.5c0,0.4,0,0.9,0.1,1.5
				c0,0.3,0.1,0.6,0.2,0.9c0,0.1,0.2,0.4,0.2,0.5l0.1,0.2c0.1,0.2,0.1,0.2,0.2,0.3c0.2,0.3,0.5,0.5,0.8,0.6c0.2,0.1,0.4,0.2,0.4,0.3
				c0.1,0.1,0.2,0.4,0.1,0.9c0,0.4-0.1,0.8-0.2,1.3c-0.1,0.2-0.2,0.5-0.2,0.9c0,0.4,0.1,0.8,0.2,1.1c0.1,0.3,0.3,0.5,0.5,0.8
				l0.2,0.3c0.1,0.1,0.2,0.2,0.3,0.3c0.7,0.8,1.5,1.4,2,2.1c0.1,0.2,0.3,0.4,0.3,0.6c0,0.1,0.1,0.2,0.1,0.3l0.1,0.2l0,0c0,0,0,0,0,0
				l0,0.1c0.1,0.4,0,0.8-0.1,1.3c-0.1,0.5-0.1,1.1,0.1,1.7c0.3,0.7,0.7,1,1.1,1.3c0.4,0.3,0.8,0.6,1.2,0.9c0.4,0.3,0.7,0.7,1,1.1
				c0.5,0.7,1.1,1.4,1.8,2c-0.4,0.2-0.7,0.4-1.1,0.6c-0.7,0.4-1.5,0.8-2.2,1.3c-0.7,0.5-1.4,1-2,1.5c-1.3,1-2.6,2.1-3.8,3.2
				c-2.5,2.2-4.8,4.5-7.3,6.6c-1.2,1-2.6,2-3.9,3l-3.9,3c-2.6,2-5.3,3.9-8,5.7c-2.7,1.8-5.6,3.3-8.6,4.6c-3,1.3-6.2,2.3-9.4,2.8
				c3.3-0.3,6.5-1.2,9.6-2.4c3.1-1.2,6.1-2.6,8.9-4.3c1.4-0.8,2.8-1.8,4.2-2.7c1.4-0.9,2.7-1.9,4.1-2.8l4-2.9c1.3-1,2.7-1.9,4-2.9
				c2.6-2.1,5-4.3,7.5-6.5c1.2-1.1,2.5-2.1,3.7-3.1c0.6-0.5,1.3-0.9,2-1.4c0.6-0.4,1.3-0.8,2-1.2c1.4-0.8,2.9-1.4,4.4-2.1
				c1.5-0.7,3-1.5,4.4-2.5c1.4-1,2.7-2.1,3.9-3.2c1.1-0.9,2.1-1.9,3.2-2.8c0.3,0.2,0.5,0.3,0.8,0.5c0.4,0.3,0.8,0.6,1.1,1l0.8,0.8
				l0.7-0.9c1.7-2.1,3.5-4.2,5.2-6.5c0.4-0.6,0.8-1.2,1.2-1.7c0.4-0.6,0.7-1.2,1.1-1.8c0.3-0.6,0.6-1.3,0.9-2l0.4-1l0.3-1.1l0-0.1
				l0-0.1c0.1-1,0.1-2,0.3-3c0.2-0.8,0.4-1.6,0.8-2.5c0,0,0.1,0,0.1-0.1c0.2-0.1,0.3-0.2,0.4-0.3c0.2-0.2,0.4-0.4,0.5-0.7
				c0.3-0.5,0.6-0.9,0.6-1.7l0,0.1c0.2-1.1,0.3-2.1,0.8-2.9c0.4-0.9,1.2-1.6,1.8-2.7c0.6-1,1-2.1,1.4-3.1c0.2-0.5,0.4-1,0.6-1.4
				c0.1-0.2,0.2-0.4,0.4-0.6c0.2-0.2,0.3-0.4,0.4-0.6c0.7-0.7,1.5-1.4,2.4-2l2.7-1.8c0.9-0.6,1.8-1.3,2.6-2.1
				c0.8-0.7,1.6-1.4,2.5-2.1c0.8-0.6,1.8-1.2,2.7-1.7c0.9-0.5,2-0.8,3-1.3c1-0.5,2-1.4,2.2-2.7c0.2-1.1,0.1-2.2,0.5-3.2
				c0.4-0.9,1.2-1.7,1.8-2.6c0.3-0.5,0.6-0.9,0.8-1.5c0.2-0.5,0.3-1.1,0.5-1.5c0.2-0.5,0.5-0.9,1-1.2c0.4-0.2,1-0.3,1.5-0.3
				c1,0,2.1,0.1,3.1,0.1c0.1,0.3,0.2,0.5,0.3,0.7c-0.1-0.2-0.2-0.5-0.3-0.7c0,0,0.1,0,0.1,0c0,0-0.1,0-0.1,0c0,0,0-0.1,0-0.1
				c-0.1-0.3-0.1-0.6-0.1-0.9c0-0.6,0-1.2,0.2-1.8c0.3-1.2,0.7-2.3,1.3-3.3c0.2,0,0.4,0,0.6,0c0.2-0.1,0.5-0.1,0.7-0.2
				c0.4-0.2,0.8-0.5,1.1-0.8c0.3-0.3,0.6-0.7,0.8-1.1c0.2-0.4,0.4-0.8,0.6-1.2c0.3-0.8,0.6-1.7,0.8-2.6l0.3-1.3
				c0.1-0.4,0.2-0.8,0.4-1.2c0.1-0.4,0.3-0.8,0.5-1.2c0.2-0.4,0.4-0.6,0.7-0.8c0.3-0.2,0.7-0.3,1.2-0.5c0.4-0.2,0.8-0.3,1.2-0.5
				c0.8-0.3,1.7-0.5,2.5-1c0.7-0.3,1.3-0.9,1.8-1.6c0.4,0.3,0.8,0.6,1.3,0.9c0.3,0.2,0.7,0.4,1.1,0.5c0.4,0.1,0.9,0.2,1.3,0.1l0.3,0
				l0.1-0.3c0.5-1.3,1-2.5,1.6-3.6c0.3,0.1,0.5,0.2,0.8,0.3c0.5,0.1,0.9,0.3,1.4,0.3c0.9,0.2,1.8,0.3,2.7,0.5
				c0.9,0.2,1.7,0.3,2.5,0.6c0.4,0.1,0.8,0.3,1.1,0.5l0.5,0.3c0.2,0.1,0.4,0.3,0.5,0.4c0.3,0.2,0.7,0.6,1.1,0.9
				c0.4,0.3,0.8,0.6,1.2,0.8c0.8,0.5,1.7,0.9,2.6,1.2c0.4,0.2,0.9,0.3,1.4,0.5c0.5,0.1,0.9,0.2,1.4,0.3c0.9,0.2,1.8,0.4,2.6,0.6
				l0.7,0.2l0.3-0.6c0.6-1.3,1.6-2.5,2.9-3.3c0.6-0.4,1.3-0.8,2-1c0.3-0.1,0.7-0.2,1-0.3c0.4-0.1,0.7-0.1,1.1-0.1l0.9,0l0-0.9
				c0-0.6,0.5-1.2,1.2-1.8c0.4-0.3,0.8-0.6,1.2-0.8c0.4-0.2,0.8-0.4,1.2-0.5c0.9-0.3,1.9-0.3,3-0.6c0.5-0.1,1.1-0.4,1.7-0.7
				c0.4-0.3,0.6-0.5,0.7-0.8c0.2-0.2,0.3-0.5,0.5-0.7c0.5-0.9,1-1.9,1.5-2.4c0.6-0.6,1.4-1.1,2.3-1.6c0.4-0.3,0.9-0.6,1.3-0.9
				c0.5-0.4,0.9-0.7,1.3-1.1c0.8-0.8,1.4-1.6,2-2.4c0.6-0.7,1.3-1.3,2-1.7c0.4-0.2,0.7-0.2,1.2-0.3c0.5-0.1,1.1-0.2,1.7-0.4
				c0.1-0.1,0.3-0.1,0.4-0.2c0.1-0.1,0.2-0.1,0.4-0.2c0.3-0.2,0.5-0.3,0.7-0.5c0.4-0.3,0.8-0.7,1.2-1c0.8-0.7,1.5-1.4,2.3-2.2
				c0.8-0.9,1.1-2,1.6-2.8c0.4-0.7,1.1-1.3,1.9-1.9c0.8-0.6,1.6-1.2,2.5-1.9c0.6-0.5,1.2-1.1,1.8-1.7c0.9,0.5,1.8,1.2,2.7,1.9
				c0.5,0.4,1.1,0.9,1.7,1.3c0.3,0.2,0.6,0.4,1,0.5c0.3,0.1,0.8,0.3,1.1,0.4c0.1,0,0.5,0.1,0.7,0.1c0.3,0,0.5-0.1,0.7-0.1
				c0.4-0.1,0.7-0.3,0.8-0.2c0,0-0.1,0,0.1,0c0,0,0,0,0,0c0,0,0,0,0.1,0.1c0.1,0.1,0.2,0.2,0.3,0.5c0.1,0.1,0.2,0.2,0.4,0.3l0.2,0.1
				l0.1,0l0.1,0l0.1,0c0.8,0.2,1.4,0.3,2,0.5c0.7,0.3,0.6,0.1,0.8,0.9c0.1,0.2,0.1,0.4,0.2,0.6c0.1,0.3,0.4,0.5,0.5,0.6
				c0.3,0.2,0.6,0.4,0.8,0.7c0.3,0.2,0.5,0.4,0.7,0.6c0.2,0.2,0.4,0.4,0.5,0.6c0.2,0.5,0.3,1.1,0.4,1.8c0.1,0.7,0.2,1.4,0.4,2.2
				c0.3,0.7,0.7,1.4,1.4,1.9c0.6,0.5,1.3,0.8,2,1.1c0.7,0.3,1.3,0.5,1.8,0.8c0.5,0.3,0.9,0.7,1.2,1.2l0.4,0.8l0.5-0.7
				c0.3-0.3,0.7-0.7,1.1-1.1c0.3,0.4,0.5,0.7,0.8,1.1c0.3,0.6,0.6,1.2,0.7,1.8l0.1,1.2l0.8-0.9c0.2-0.2,0.4-0.4,0.6-0.5
				c0.2-0.1,0.5,0,0.8,0c0.6,0.2,1.2,0.6,1.7,1.1c0.6,0.5,1.1,1,1.7,1.5c0.3,0.2,0.6,0.5,0.9,0.7c0.2,0.1,0.3,0.2,0.6,0.3
				c0.2,0.1,0.3,0.1,0.6,0.1c2.2,1.8,3.8,4.3,5.3,6.7c0.7,1.3,1.4,2.6,2.3,3.8c0.5,0.6,1,1.1,1.5,1.6c0.3,0.4,0.6,0.8,0.7,1.3
				c-0.4,0.6-0.8,1.1-1.2,1.6l-3.7,4.2c-0.6,0.7-1.2,1.5-1.7,2.2c-0.6,0.7-1.2,1.4-1.9,1.5c-0.4,0.1-0.8,0-1.2-0.2
				c-0.4-0.1-0.8-0.4-1.2-0.6c-0.7-0.4-1.3-1.2-1.9-1.9c-0.3-0.4-0.6-0.7-1-1c-0.2-0.2-0.4-0.3-0.6-0.5c-0.1-0.1-0.2-0.1-0.4-0.2
				c-0.1-0.1-0.2-0.1-0.4-0.1c-0.6-0.1-1.1,0.1-1.5,0.3c-0.4,0.3-0.8,0.6-1.1,0.9c-1.3,1.4-2.3,3-3.5,4.4c-0.6,0.8-1.1,1.6-1.4,2.4
				c-0.4,0.9-0.7,1.7-1,2.6c-0.4,0.8-0.8,1.6-1.4,2.3c-0.6,0.7-1.3,1.2-2.1,1.8c-1.4,1.2-2.8,2.5-3.9,4c-1.1,1.5-2,3.1-2.8,4.8
				c0.9-1.7,1.8-3.3,2.9-4.7c1.1-1.5,2.5-2.8,3.9-3.9c0.7-0.6,1.5-1.1,2.1-1.8c0.6-0.7,1.1-1.5,1.5-2.4c0.4-0.9,0.7-1.7,1.1-2.6
				c0.4-0.8,0.9-1.6,1.4-2.3c1.2-1.4,2.3-3,3.6-4.2c0.3-0.3,0.7-0.6,1-0.8c0.4-0.2,0.8-0.3,1.1-0.2c-0.1,0.2-0.2,0.5-0.3,0.8
				c-0.2,0.6-0.3,1.6,0,2.6c0,0.1,0.1,0.2,0.1,0.4c0.1,0.2,0.1,0.2,0.2,0.4c0.2,0.3,0.4,0.5,0.6,0.6c0.4,0.3,0.6,0.4,0.8,0.5
				c0.2,0.2,0.4,0.4,0.5,0.6l0,2.3c0,0.5-0.5,1.2-1,1.8c-0.6,0.6-1.2,1.2-1.9,1.7l-1.1,0.8c-0.4,0.3-0.7,0.6-1.1,0.8
				c-0.7,0.6-1.4,1.1-2.1,1.6c-1.4,1.1-2.9,2.2-4.3,3.4c-0.7,0.6-1.3,1.2-1.9,1.9c-0.3,0.3-0.6,0.7-0.8,1.1
				c-0.3,0.4-0.5,0.8-0.7,1.2c0.3-0.4,0.5-0.7,0.8-1.1c0.3-0.3,0.6-0.6,0.9-1c0.6-0.6,1.3-1.2,2.1-1.7c1.4-1.1,3-2,4.5-2.9
				c0.8-0.5,1.5-1,2.3-1.5l2.2-1.5c0.7-0.5,1.5-1.1,2.2-1.8c0.3-0.3,0.6-0.7,0.9-1.1c0.3,0.4,0.5,0.8,0.8,1.2
				c0.6,0.8,1.1,1.6,1.9,2.4c0.4,0.5,1,0.8,1.5,1c0.2,0.1,0.4,0.2,0.6,0.3c0.2,0.1,0.3,0.2,0.5,0.4c0.2,0.1,0.4,0.3,0.5,0.4
				c0,0.1,0,0,0.1,0.2c0.1,0.4,0.1,0.9,0.2,1.4c0.1,0.3,0.1,0.5,0.2,0.8c0.1,0.3,0.2,0.6,0.3,0.8c0.2,0.5,0.4,1,0.7,1.5
				c0.6,0.9,1.2,1.7,1.9,2.5c0.7,0.7,1.3,1.5,1.9,2.2c0.1,0.2,0.3,0.4,0.4,0.6c0.1,0.1,0.2,0.2,0.2,0.2l0.2,0.3l0.2,0.3l0.1,0.3
				c0.1,0.2,0.2,0.4,0.2,0.6c0.6,1.7,0.7,3.6,0.9,5.6c0.1,1,0.3,2,0.6,3c0.3,1,0.9,2,1.6,2.7c0.7,0.8,1.5,1.3,2.1,2
				c0.6,0.7,1,1.5,1.4,2.4c0.6,1.8,0.8,3.7,1.4,5.5c-0.1-0.1-0.2-0.2-0.3-0.4c0,0.2,0.2,0.4,0.4,0.5l0.1,0.1l0-0.1
				c-0.4-1.9-0.4-3.9-0.9-5.9c-0.3-1-0.6-2-1.3-2.8c-0.6-0.8-1.4-1.5-2-2.2c-0.6-0.7-1-1.5-1.2-2.4c-0.2-0.9-0.4-1.8-0.4-2.8
				c-0.1-1.9-0.1-4-0.8-6c-0.1-0.3-0.2-0.5-0.3-0.8l-0.2-0.4l-0.2-0.3l-0.2-0.3c-0.1-0.2-0.2-0.2-0.2-0.4c-0.1-0.2-0.3-0.4-0.4-0.6
				c-0.6-0.8-1.3-1.6-1.9-2.3c-0.6-0.7-1.2-1.5-1.7-2.2c-0.2-0.4-0.4-0.8-0.6-1.2c-0.1-0.2-0.1-0.4-0.2-0.6
				c-0.1-0.2-0.1-0.5-0.1-0.7c-0.1-0.5-0.1-0.9-0.2-1.5c0-0.3-0.3-0.8-0.6-1.1c-0.3-0.3-0.5-0.4-0.7-0.5c-0.2-0.1-0.4-0.3-0.7-0.5
				c-0.3-0.1-0.5-0.3-0.7-0.3c-0.4-0.2-0.7-0.4-1-0.6c-0.6-0.6-1.2-1.4-1.8-2.2c-0.6-0.8-1.1-1.6-1.6-2.4l-1.2-1.9
				c0,0,0-0.1,0.1-0.1c0.1-0.2,0.2-0.5,0.1-1c0-0.2-0.1-0.5-0.2-0.7c-0.1-0.2-0.2-0.4-0.3-0.5c-0.1-0.1-0.2-0.3-0.2-0.4
				c0,0-0.1-0.2-0.1-0.2c0-0.1-0.1-0.2-0.1-0.2c-0.2-0.6-0.4-1.5-0.7-2.1c-0.1-0.2-0.2-0.3-0.2-0.4c0.5,0.3,1,0.9,1.4,1.4
				c0.6,0.7,1.1,1.5,2,2.1c0.4,0.2,0.8,0.5,1.3,0.7c0.5,0.2,1,0.3,1.6,0.2c0.6-0.1,1-0.4,1.4-0.7c0.4-0.3,0.7-0.7,1-1.1
				c0.6-0.7,1.2-1.5,1.8-2.1l3.8-4.1c0.6-0.7,1.3-1.5,1.7-2.3c0.5-0.8,0.9-1.7,1.3-2.5c0.8-1.7,1.6-3.3,3.1-4.2
				c1.4-1,3.2-1.7,4.7-3.1c0.7-0.7,1.3-1.4,1.9-2.1c0.6-0.7,1.2-1.4,1.9-2l3.8-4c0.6-0.7,1.3-1.3,1.9-2.2c0.5-0.8,1-1.6,1.4-2.4
				c0.5-0.8,1-1.5,1.6-2c0.6-0.5,1.2-0.5,1.9-0.2l0.6,0.3l0.3-0.6c0.4-0.8,0.9-1.5,1.6-2.1c0.7-0.7,1.5-1.3,2.1-2.2
				c0.3-0.5,0.6-0.9,0.7-1.5c0.2-0.5,0.3-1,0.4-1.5c0.2-1,0.3-2,0.4-2.9c0.1-0.4,0.2-0.9,0.4-1.2c0.2-0.4,0.5-0.7,0.7-1.2
				c0.3-0.5,0.5-1.1,0.6-1.6c0.1-0.4,0.2-0.9,0.4-1.4c0.3-0.9,0.6-1.8,0.9-2.7l0.1-0.1c0,0,0-0.1,0.1-0.1c0.1-0.1,0.1-0.2,0.2-0.3
				c0.1-0.1,0.2-0.3,0.3-0.5c0.3-0.3,0.6-0.6,1-0.8c0.7-0.5,1.6-1,2.5-1.6c0.6-0.5,1.5-0.6,2.5-1c0.5-0.2,1.1-0.4,1.6-1
				c0.4-0.4,0.7-1,0.9-1.4c0.5-0.9,0.8-1.8,1.3-2.4c0.6-0.7,1.3-1.4,2-2c0.7-0.6,1.4-1.3,2.2-1.9c1.3-1.1,2.6-2.2,3.7-3.5
				c1.1,1,2.2,2.1,3.2,3.3c1.2,1.3,2.4,2.7,3.5,4.1c0.5,1,1.1,2,1.7,3c0.3,0.5,0.7,1,1,1.5c0.4,0.5,0.8,1,1.2,1.4
				c0.2,0.2,0.4,0.4,0.7,0.6l0.6,0.6l1.3,1.1l2.4,2.1c1.3,2.8,2.6,5.6,3.9,8.4c0.7,1.4,1.4,2.8,2.2,4.2c0.7,1.4,1.5,2.8,2.4,4.1
				c0.4,0.7,1,1.4,1.7,2c0.7,0.6,1.6,0.9,2.3,1.2c0.7,0.3,1.4,0.6,1.9,1c0.5,0.3,0.8,0.9,1.4,1.6c0.3,0.3,0.6,0.7,1,1
				c0.4,0.3,1,0.5,1.5,0.6l0,0l0,0l0,0l0.1,0l0.1,0l0.1,0c0.1,0,0.2,0,0.3,0c0.3,0,0.6,0,0.8-0.1c0.5-0.1,1-0.4,1.4-0.6
				c0.8-0.6,1.3-1.2,1.8-1.6c0.3-0.3,0.6-0.5,0.9-0.6c0.4,0.8,0.9,1.5,1.4,2.1c0.7,0.9,1.4,1.7,1.9,2.5l0.5,0.7
				c0.2,0.2,0.4,0.5,0.6,0.7c0.4,0.4,0.8,0.9,1.3,1.2l1.3,1c0.2,0.2,0.4,0.3,0.6,0.5c0,0,0.1,0.1,0.1,0.1l0.1,0.1l0.2,0.3
				c0.3,0.4,0.6,0.8,0.9,1.3c0.3,0.4,0.6,0.9,1,1.4c0.2,0.2,0.4,0.5,0.9,0.7l0.1,0l0.1,0l0,0c-0.1,0,0.2,0,0.1,0l0,0l0.1,0l0.2,0
				c0.1,0,0.5,0,0.7-0.1c0.8-0.2,1.2-0.5,1.7-0.9c0.9-0.7,1.7-1.4,2.5-2.2c0.3-0.3,0.7-0.7,1-1.1c0,0.4-0.1,0.8-0.2,1.2
				c-0.2,0.7-0.5,1.3-0.8,2c-0.3,0.7-0.5,1.4-0.5,2.2c-0.1,0.8,0.1,1.6,0,2.1c0,0.3-0.2,0.6-0.3,0.9c-0.1,0.1-0.2,0.3-0.3,0.5
				c-0.1,0.1-0.2,0.3-0.3,0.4c-0.4,0.6-0.9,1.1-1.4,1.7c-0.5,0.6-0.9,1.5-1,2.2c-0.2,0.7-0.4,1.4-0.6,2c-0.5,1.3-1,2.6-1.9,3.6
				c-0.4,0.5-0.9,0.9-1.4,1.3c-0.6,0.4-1.2,0.6-1.9,1.1c-1.5,1-2.1,2.7-2.7,3.9c-0.3,0.6-0.6,1.2-1,1.7c-0.4,0.6-0.8,1.1-1.3,1.5
				c-0.9,0.9-2.1,1.7-3.3,2.6l-0.2,0.2c-0.1,0,0,0,0,0l-0.1,0l-0.5,0.2l-0.5,0.2c-0.2,0.1-0.4,0.2-0.7,0.4c-0.1,0.1-0.1,0.1-0.2,0.2
				l-0.1,0.1l0,0c-0.1,0.2,0,0.1-0.1,0.1l0,0.1c0,0.1-0.1,0.1-0.1,0.2c-0.1,0.3,0,0.6,0,0.8c0.1,0.3,0.2,0.4,0.3,0.6l-0.1,0.3
				c-0.3,0.7-0.6,1.2-1,1.6c-0.4,0.4-1,0.8-1.5,1.2c-1.1,0.8-2.4,1.5-3.6,1.9c-0.6,0.2-1.2,0.3-2,0.4c-0.4,0.1-0.8,0.1-1.2,0.3
				c-0.2,0.1-0.4,0.1-0.6,0.3c-0.1,0.1-0.2,0.1-0.3,0.1c-0.1,0.1-0.2,0.1-0.3,0.2c-1.4,1-2.1,2.3-3.2,2.8c-0.2,0.1-0.4,0.2-0.6,0.4
				c-0.2,0.2-0.3,0.4-0.4,0.6c-0.1,0.2-0.2,0.3-0.3,0.6c-0.1,0.2-0.1,0.5-0.2,0.7c0,0.4,0,0.8,0,1.1c0,0.3,0,0.7-0.1,0.8
				c-0.1,0.3-0.8,0.5-1.5,0.5c-0.7,0-1.4-0.1-1.9-0.3l-0.4-0.2l-0.1,0.3c-0.3,0.7-0.3,1.4-0.2,2c0.1,0.6,0.1,1.2,0.1,1.8
				c0,0.1,0,0.3-0.1,0.4c-0.1,0.2-0.1,0.3-0.2,0.4c-0.1,0.2-0.4,0.5-0.6,0.6c-0.2,0.2-0.5,0.4-0.7,0.6c0,0-0.1,0.1-0.1,0.1l-0.1-0.1
				l-0.9,0.6c-0.6,0.4-1.1,1-1.4,1.6c-0.3,0.6-0.4,1.2-0.5,1.7c-0.1,0.3-0.1,0.5-0.2,0.7c0,0.1-0.1,0.2-0.1,0.3l-0.1,0.2
				c0,0-0.1,0.1-0.1,0.1c-0.3,0.4-0.6,0.9-0.9,1.3c-0.6,0.9-1.4,1.7-2.1,2.5l-1.1,1.3c-0.3,0.4-0.7,0.8-1.1,1.1
				c-1.6,1.4-3.5,2.5-5.4,3.8c-0.5,0.3-0.9,0.7-1.3,1.1c-0.4,0.3-0.8,0.6-1.2,0.8c-0.3,0.1-0.4,0.1-0.7-0.2
				c-0.3-0.3-0.6-0.7-0.9-1.1l-0.5-0.8l-0.7,0.7c-0.3,0.3-0.5,0.7-0.8,1c-0.2,0.3-0.4,0.6-0.6,1l-1.1,1.9c-0.7,1.3-1.5,2.5-2.3,3.7
				c-0.8,1.2-1.7,2.3-2.8,3.1c-0.3,0.2-0.5,0.4-0.8,0.5c-0.3,0.1-0.6,0.2-0.8,0.2c-0.3,0-0.6,0-0.8-0.1c-0.1-0.1-0.3-0.1-0.4-0.2
				l-0.4-0.3l-0.5-0.3l-0.3,0.4c-0.9,1.1-1.3,2.3-1.8,3.4c-0.2,0.6-0.5,1.1-0.8,1.6c-0.2,0.3-0.3,0.5-0.5,0.7
				c-0.2,0.2-0.4,0.5-0.6,0.7c-1.6,1.8-3.6,3.2-5.7,4.5l-0.3,0.2l0.1,0.3c0.4,1,1.1,1.8,1.7,2.6c0.6,0.8,1.2,1.5,1.7,2.3
				c0.3,0.4,0.5,0.8,0.7,1.2c0.2,0.4,0.4,0.9,0.4,1.3c0.1,0.2,0,0.4,0,0.6c0,0.2-0.1,0.5-0.1,0.7c-0.1,0.4-0.5,0.7-0.8,1.1
				c-0.7,0.7-1.5,1.2-2.2,1.9c-0.4,0.3-0.7,0.7-1.1,1l-1,1l-4.2,4.1l4.4-3.9l1.1-1c0.4-0.3,0.7-0.7,1.1-1c0.8-0.6,1.6-1.2,2.3-1.8
				c0.4-0.3,0.7-0.7,1-1.2c0.1-0.3,0.1-0.5,0.2-0.8c0-0.3,0-0.6,0-0.8c-0.1-0.5-0.2-1-0.4-1.5c-0.2-0.5-0.5-0.9-0.7-1.3
				c-0.5-0.8-1.1-1.6-1.7-2.4c-0.5-0.7-1-1.4-1.3-2.1c2-1.2,4-2.6,5.7-4.3c0.2-0.2,0.4-0.5,0.6-0.7c0.2-0.2,0.4-0.5,0.6-0.8
				c0.3-0.6,0.6-1.1,0.9-1.7c0.4-0.9,0.9-1.9,1.4-2.6l0,0c0.2,0.1,0.4,0.2,0.6,0.3c0.4,0.1,0.9,0.2,1.3,0.2c0.5,0,0.9-0.1,1.3-0.3
				c0.4-0.2,0.8-0.4,1.1-0.6c1.3-0.9,2.3-2.1,3.1-3.3c0.9-1.2,1.6-2.5,2.4-3.7l1.1-1.9c0.2-0.3,0.4-0.6,0.6-0.9
				c0.2,0.2,0.3,0.4,0.6,0.6c0.3,0.2,0.6,0.5,1.1,0.6c0.5,0.1,0.9,0,1.3-0.1c0.7-0.3,1.2-0.7,1.6-1c0.4-0.4,0.9-0.7,1.3-1
				c1.7-1.3,3.7-2.4,5.5-3.9c0.4-0.4,0.9-0.8,1.3-1.2l1.1-1.3c0.7-0.8,1.5-1.7,2.2-2.6c0.4-0.5,0.7-0.9,1-1.5c0-0.1,0.1-0.1,0.1-0.2
				l0.1-0.2c0.1-0.1,0.1-0.3,0.2-0.5c0.1-0.3,0.2-0.6,0.3-0.9c0.1-0.5,0.2-0.9,0.4-1.3c0.2,0.8,0.5,1.6,0.7,2.4
				c0.4,1.3,0.9,2.7,1.7,4c0.2,0.3,0.5,0.6,0.7,0.9c0.2,0.1,0.3,0.3,0.5,0.4l0.2,0.2l0.3,0.2c0.7,0.4,1.4,0.7,2,1
				c0.6,0.3,1.2,0.5,1.7,0.8c0.1,0.1,0.3,0.1,0.4,0.2c0,0,0.1,0.1,0.2,0.1c0.1,0.1,0.1,0.1,0.2,0.2c0.2,0.2,0.4,0.4,0.6,0.6
				c0.4,0.5,0.9,1,1.5,1.5c0.3,0.3,0.6,0.5,1.1,0.7l0.2,0.1l0.1,0l0,0l0.1,0c0.1,0,0.4,0.1,0.5,0.1c0.2,0,0.5,0,0.7,0
				c0.3,0,0.7-0.1,0.9-0.1c0.1,0,0.1,0.1,0.2,0.1c0.1,0.1,0.2,0.1,0.3,0.2c0.5,0.3,0.9,0.7,1.4,1.2c0.5,0.5,0.9,1,1.4,1.5
				c0.5,0.5,1,1,1.6,1.5c0.3,0.2,0.7,0.5,1.1,0.6c0.4,0.2,1,0.3,1.6,0.1c0.6-0.2,1-0.6,1.3-0.9c0-0.1,0.1-0.1,0.1-0.2
				c0.1,0.1,0.2,0.1,0.3,0.2c0.3,0.2,0.7,0.5,1,0.8c0.6,0.6,1.2,1.2,1.8,1.9c1.2,1.4,2.2,2.9,3.4,4.3c0.3,0.4,0.6,0.7,1.1,1.1
				c0.4,0.3,0.8,0.6,1.2,0.9c0.8,0.5,1.6,1,2.2,1.5l0.1,0.1c0,0,0.1,0.1,0,0l0.1,0.1c0.1,0.1,0.2,0.2,0.2,0.2
				c0.1,0.1,0.2,0.3,0.3,0.5c0.2,0.3,0.4,0.7,0.6,1.1c0.4,0.8,0.7,1.7,1.2,2.6l0.3,0.5l0.9-0.4c0.1,0,0.1-0.1,0.2-0.1
				c0.1,0,0.1-0.1,0.2,0c0.1,0,0.1,0,0.2,0c0.1,0,0.2,0,0.3,0.1c0.4,0.2,0.9,0.6,1.3,1c0.9,0.8,1.7,1.8,2.6,2.8
				c0.5,0.5,1,0.9,1.5,1.3l1.5,1.3l2.9,2.6l2.9,2.6c1,0.8,1.9,1.7,2.9,2.6c0.9,0.9,1.8,1.8,2.5,2.8c0.8,1,1.6,2,2.3,3.1
				c0.3,0.5,0.6,1.1,0.9,1.6c0.1,0.3,0.2,0.5,0.2,0.8c0,0.2,0,0.3,0,0.4c0,0.1,0,0.1,0,0.1c0,0,0,0.1,0,0.1c0,0.1,0,0.1-0.1,0.1
				c-0.1,0-0.2,0-0.4,0.1c-0.3,0-0.7,0-1.1,0.1c-0.4,0.1-0.8,0.4-1,0.8l0,0.1l0,0c0,0,0,0,0,0.1l0,0l0,0.1c0,0.1-0.1,0.1-0.1,0.2
				c0,0.2-0.1,0.5,0,0.7c0.1,0.8,0.4,1.4,0.8,2c0.4,0.6,0.8,1.1,1.2,1.6c0.4,0.5,0.9,0.9,1.4,1.4c0.5,0.4,1.1,0.8,1.6,1.1
				c1.1,0.7,2.3,1.2,3.4,1.8c1.1,0.6,2.1,1.4,2.8,2.5c0.7,1.1,1.4,2.1,2.1,3.2c0.6,1.1,1.3,2.3,1.6,3.5c-0.3-1.3-0.8-2.5-1.4-3.6
				c-0.6-1.1-1.3-2.3-2-3.4c-0.7-1.1-1.8-2-2.9-2.7c-1.1-0.7-2.3-1.2-3.4-1.9c-1.1-0.7-2-1.5-2.8-2.5c-0.4-0.5-0.8-1-1.1-1.5
				c-0.3-0.5-0.6-1.1-0.6-1.6c0-0.1,0-0.2,0-0.3c0-0.1,0.1-0.1,0.1-0.2l0-0.1l0,0l0,0c0.1-0.2,0.3-0.3,0.5-0.4
				c0.2-0.1,0.5-0.1,0.9-0.1c0.2,0,0.4,0,0.6-0.1c0.2-0.1,0.5-0.2,0.6-0.5c0.3-0.4,0.3-1,0.2-1.2c0-0.4-0.1-0.8-0.2-1.1
				c-0.2-0.7-0.6-1.3-0.9-1.8c-0.7-1.1-1.5-2.2-2.2-3.2c-0.8-1.1-1.7-2.1-2.6-3c-0.9-0.9-1.9-1.8-2.9-2.7l-2.9-2.6l-2.8-2.6
				l-1.4-1.3c-0.5-0.4-1-0.9-1.4-1.3c-0.8-0.9-1.6-1.9-2.6-2.9c-0.5-0.5-1-0.9-1.8-1.3c-0.2-0.1-0.4-0.2-0.6-0.2
				c-0.2-0.1-0.5-0.1-0.7-0.1c-0.2,0-0.3,0-0.5,0.1c-0.3-0.5-0.5-1.1-0.8-1.7c-0.2-0.4-0.4-0.9-0.7-1.3c-0.1-0.2-0.3-0.4-0.5-0.7
				c-0.1-0.1-0.2-0.2-0.3-0.3l-0.1-0.1l-0.1-0.1l-0.1-0.1c-0.8-0.7-1.6-1.2-2.4-1.7c-0.4-0.2-0.7-0.5-1-0.8
				c-0.3-0.2-0.6-0.6-0.9-0.9c-1.2-1.4-2.2-2.9-3.4-4.3c-0.6-0.7-1.2-1.5-2-2.1c-0.4-0.3-0.7-0.6-1.2-0.9c-0.4-0.3-0.8-0.6-1.3-0.8
				l-0.8-0.4l-0.4,0.9l-0.2,0.4c-0.1,0.1-0.1,0.2-0.2,0.3c-0.1,0.1-0.2,0.3-0.3,0.3c-0.1,0-0.2,0-0.4-0.1c-0.2-0.1-0.4-0.2-0.7-0.4
				c-0.5-0.4-0.9-0.8-1.4-1.3c-0.4-0.5-0.9-1-1.4-1.5c-0.5-0.5-1-1-1.7-1.5c-0.2-0.1-0.3-0.2-0.5-0.3c-0.1-0.1-0.2-0.1-0.2-0.1
				l-0.1,0l-0.1,0l-0.1,0c-0.1,0-0.2,0-0.2,0c0,0-0.1,0-0.1,0c-0.5,0-0.8,0.1-1.1,0.1c-0.1,0-0.3,0-0.4,0c-0.1,0,0,0,0,0l-0.1,0l0,0
				l-0.1,0c-0.2-0.1-0.4-0.2-0.6-0.4c-0.4-0.4-0.9-0.9-1.3-1.4c-0.2-0.3-0.5-0.5-0.8-0.8l-0.2-0.2c-0.1-0.1-0.2-0.1-0.3-0.2
				c-0.2-0.1-0.3-0.2-0.5-0.3c-0.7-0.4-1.3-0.6-2-0.9c-0.6-0.2-1.2-0.5-1.7-0.8l-0.1-0.1l-0.2-0.2l-0.3-0.3
				c-0.2-0.2-0.4-0.4-0.5-0.7c-0.7-1-1.1-2.2-1.5-3.5c-0.4-1.3-0.7-2.6-1.3-4l-0.3-0.7c0-0.1,0.1-0.1,0.2-0.1
				c0.2-0.2,0.5-0.3,0.8-0.5c0.3-0.2,0.5-0.4,0.7-0.6c0.1-0.1,0.2-0.3,0.2-0.4c0.1-0.2,0.1-0.3,0.1-0.5c0.1-0.6,0.1-1.3,0.1-1.9
				c0-0.5,0-0.9,0.2-1.3c0.6,0.3,1.2,0.4,1.9,0.4c0.4,0,0.8,0,1.2-0.1c0.4-0.1,0.9-0.3,1.2-0.8c0.3-0.5,0.2-0.9,0.3-1.3
				c0-0.4,0-0.7,0.1-1c0.1-0.3,0.1-0.4,0.3-0.7c0.1-0.1,0.2-0.2,0.3-0.3c0.1-0.1,0.1-0.1,0.3-0.2c1.6-0.7,2.5-2.1,3.5-2.7
				c0.1,0,0.1-0.1,0.2-0.1c0.1,0,0.2-0.1,0.2-0.1c0.1,0,0.3-0.1,0.4-0.1c0.3-0.1,0.6-0.1,0.9-0.2c0.7-0.1,1.5-0.1,2.3-0.4
				c1.5-0.5,2.8-1.2,4.1-2c0.3-0.2,0.6-0.4,0.9-0.6c0.3-0.2,0.6-0.5,0.9-0.8c0.6-0.6,1-1.4,1.3-2.1l0.2-0.5l0-0.1l0,0l0,0l0.1-0.2
				l0,0l0,0l0-0.1c0-0.2,0-0.4,0-0.4c-0.1-0.3-0.1-0.4-0.2-0.5l0.4-0.2l0.5-0.2l0.2-0.1c0,0,0.2-0.1,0.2-0.1l0.2-0.2
				c1.2-0.8,2.4-1.7,3.6-2.8c0.5-0.6,1-1.2,1.5-1.8c0.4-0.6,0.9-1.4,1.2-2c0.3-0.7,0.6-1.3,0.9-1.9c0.3-0.6,0.7-1,1.1-1.4
				c0.5-0.3,1.2-0.7,1.8-1.1c0.6-0.4,1.3-1,1.8-1.6c1-1.3,1.6-2.7,2-4.2c0.2-0.7,0.4-1.4,0.6-2.1c0.2-0.7,0.3-1.2,0.7-1.8
				c0.4-0.6,0.9-1.1,1.3-1.8c0.1-0.2,0.2-0.3,0.3-0.5c0.1-0.2,0.2-0.3,0.2-0.5c0.2-0.4,0.3-0.8,0.3-1.2c0-0.4-0.1-0.8-0.1-1.2
				c-0.1-0.3-0.1-0.7-0.1-1c0-0.7,0.1-1.4,0.3-2c0.2-0.7,0.5-1.4,0.6-2.1c0.1-0.5,0.1-1,0-1.5c0,0,0.1-0.1,0.1-0.1
				c0.3,0.4,0.5,0.8,0.8,1.2c0.6,0.7,1.2,1.3,1.9,1.9c0.7,0.6,1.4,1.1,2.2,1.6c0.8,0.5,1.7,0.8,2.4,1.1c0.8,0.3,1.5,0.7,2.1,1.1
				c0.7,0.5,1.3,1,1.9,1.6c0.6,0.6,1.3,1.2,1.9,1.7c0.7,0.6,1.4,1.1,1.9,1.6c0.6,0.6,1,1.2,1.4,1.8c0.4,0.7,0.7,1.5,1,2.2
				c0.3,0.8,0.6,1.6,1,2.4c0.4,0.8,0.8,1.6,1.2,2.4c1.8,3,4,5.6,5.5,8.6l0.3,0.7l0.7-0.3c1.5-0.6,2.5-1.6,3.5-2.5
				c0.5-0.4,1-0.8,1.4-1.1c0.4-0.3,1.1-0.5,1.2-0.4c0.4,0.1,0.9,0.6,1.8,0.9c0.2,0.1,0.5,0.1,0.7,0.1l0.2,0c0,0,0.2,0,0.1,0l0,0
				l0.1,0c0.1,0,0.1,0,0.3-0.1c0.1,0,0.3-0.1,0.4-0.2l0.3-0.2c0.2-0.1,0.3-0.2,0.5-0.3c0.6-0.5,1.1-0.9,1.5-1.3
				c0.5-0.4,1-0.8,1.2-0.8l0,0l0,0c-0.1,0,0,0,0,0l0.1,0c0.1,0,0.2,0,0.2,0c0,0,0,0,0.1,0c0,0.1,0.1,0.3,0.1,0.5
				c0.1,0.2,0.2,0.5,0.4,0.7c0.2,0.2,0.4,0.4,0.6,0.5c0.2,0.1,0.4,0.2,0.5,0.2c0.1,0.1,0.4,0.1,0.5,0.2c1.4,0.4,2.8,0.4,4,0.6
				c1.2,0.2,2.2,0.7,3.2,1.5C463.9,109.8,464.8,110.7,465.6,111.7z M665.2,142.5c0.1,0,0.1,0.1,0.2,0.1c0,0,0,0,0,0c0,0-0.1,0-0.1,0
				c-0.1-0.1-0.2-0.2-0.3-0.3C665,142.4,665.1,142.4,665.2,142.5z M101.2,150.1C101.2,150.1,101.2,150.1,101.2,150.1
				C101.2,150.1,101.2,150.1,101.2,150.1z M130.8,163.3c-0.2-0.2-0.4-0.3-0.6-0.5c-0.5-0.4-1-0.7-1.5-1l-0.6-0.4l-0.5,0.5
				c-1.2,1.1-2.4,2.2-3.6,3.3c-1.2,1.1-2.5,2.2-3.7,3.1c-2.2,1.6-4.9,2.7-7.5,4c-0.6-0.6-1-1.4-1.5-2.2c-0.3-0.4-0.6-0.9-1-1.2
				c-0.4-0.4-0.8-0.7-1.1-1c-0.3-0.3-0.7-0.7-0.7-1c-0.1-0.4,0-0.8,0.1-1.3c0.1-0.5,0.2-1,0.2-1.7l0-0.1c0,0,0,0,0-0.1l0,0l0-0.2
				c0-0.1-0.1-0.3-0.2-0.4c-0.1-0.3-0.3-0.5-0.4-0.8c-0.6-0.9-1.4-1.6-2-2.4c-0.1-0.1-0.2-0.2-0.2-0.3l-0.2-0.3
				c-0.1-0.2-0.2-0.4-0.3-0.5c-0.1-0.2-0.1-0.3-0.1-0.4c0-0.1,0.1-0.3,0.2-0.6c0.2-0.5,0.3-1.1,0.3-1.7c0-0.5,0.1-1.3-0.5-2
				c-0.3-0.3-0.6-0.5-0.8-0.6c-0.2-0.1-0.3-0.2-0.4-0.3c0,0-0.1-0.1,0,0l-0.1-0.2c0-0.1,0-0.1-0.1-0.2c0-0.1-0.1-0.3-0.1-0.5
				c0-0.4,0-0.9,0-1.5c0-0.3-0.1-0.7-0.2-1c-0.2-0.4-0.3-0.5-0.5-0.9c0,0-0.1-0.1-0.2-0.2c-0.1-0.1-0.2-0.2-0.5-0.2
				c-0.1,0-0.3,0-0.4,0c0,0,0,0-0.1,0l-0.1,0c0,0,0,0-0.1,0c-0.2-0.1-0.4-0.1-0.6,0c-0.1,0-0.1,0-0.2,0c0-0.2,0-0.4,0.1-0.6l0-0.4
				c0-0.1,0-0.1,0-0.3l0-0.2c0-0.2-0.1-0.5-0.1-0.8c-0.1-0.3-0.1-0.6-0.2-0.8c-0.3-1.1-1.1-2.1-1.8-2.9l-1.1-1.1
				c-0.4-0.4-0.8-0.7-1.2-1.1c-0.8-0.6-1.6-1.2-2.1-1.8c-0.6-0.7-1.1-1.5-1.5-2.4c-0.4-0.9-0.8-1.8-1.2-2.7l-0.4-1l-0.8,0.6
				c-0.3,0.3-0.5,0.5-0.6,0.7l-0.3,0.5c-0.1,0.1-0.1,0.1-0.1,0.2c-0.2-0.1-0.4-0.4-0.7-0.7c-0.3-0.3-0.5-0.6-0.8-1
				c-0.3-0.3-0.5-0.7-0.8-1l-0.7-1.1c-0.2-0.4-0.5-0.7-0.8-1.1c-0.3-0.4-0.6-0.7-0.9-1l-0.9-1c-0.3-0.3-0.6-0.6-0.9-1
				c-0.3-0.4-0.7-0.7-1-1c-0.4-0.3-0.7-0.5-1-0.8c-0.3-0.3-0.5-0.6-0.8-1c-0.2-0.4-0.5-0.7-0.7-1.1c-0.2-0.4-0.4-0.8-0.6-1.2
				c-0.1-0.2-0.2-0.5-0.2-0.7c0,0,0,0,0,0l1.2,0.7c0.6,0.3,1.2,0.7,2,0.9c0.4,0.1,0.8,0.2,1.2,0.2c0.4,0,0.8-0.1,1.2-0.2
				c0.4-0.1,0.7-0.3,1.1-0.4c0.1-0.1,0.3-0.2,0.4-0.2c1.5,0.9,3.1,1.5,4.4,2.3c0.4,0.2,0.7,0.4,1.1,0.7c0.4,0.3,0.8,0.6,1.3,0.8
				c0.5,0.2,0.9,0.4,1.3,0.6c0.5,0.2,0.6,0.3,0.9,0.6c0.2,0.2,0.4,0.3,0.7,0.5c0.1,0.1,0.3,0.2,0.4,0.2c0.2,0.1,0.4,0.1,0.6,0.2
				c0.7,0.1,1,0,1.2,0.1c0.2,0.1,0.6,0.4,1,0.6c0.3,0.3,0.7,0.5,1,0.8c0.7,0.6,1.1,1.1,1.5,1.9c0.3,0.8,0.8,1.9,1.7,2.6
				c0.8,0.7,1.7,1.1,2.6,1.5c0.9,0.4,1.7,0.7,2.4,1.1c0.7,0.4,1.3,1,1.9,1.7c0.6,0.7,1.2,1.4,1.9,2.1c0.8,0.7,1.6,1.2,2.3,1.7
				l2.3,1.5c0.8,0.5,1.5,1,2.3,1.6c0.8,0.5,1.6,0.9,2.4,1.2c0.2,0.4,0.4,0.6,0.6,1l0.7,1.1l1.5,2.1l3,4.1l3,4.1l1.5,2l0.7,1
				c0.1,0.1,0.2,0.2,0.2,0.4C131.7,162.2,131.2,162.7,130.8,163.3z M166.7,114.5c-0.5,1.1-0.4,2.3-0.7,3.3c-0.2,1-1,1.6-1.9,2
				c-0.9,0.4-2,0.8-3,1.3c-1,0.5-1.9,1.1-2.9,1.7c-0.9,0.6-1.8,1.3-2.6,2.1c-0.8,0.7-1.6,1.3-2.5,1.9l-2.8,1.7
				c-0.9,0.6-1.9,1.3-2.7,2.1c-0.2,0.2-0.4,0.5-0.6,0.7c-0.2,0.3-0.3,0.5-0.5,0.8c-0.3,0.5-0.5,1-0.7,1.5c-0.4,1-0.8,2-1.3,2.9
				c-0.5,0.8-1.3,1.6-1.9,2.7c-0.6,1.1-0.8,2.3-1,3.4l0,0l0,0c0,0.2-0.2,0.5-0.4,0.8c-0.1,0.1-0.2,0.3-0.3,0.4
				c-0.1,0.1-0.1,0.1-0.1,0.1c0,0,0,0,0,0c0,0,0.1,0,0.1,0l-0.8,0.5c-0.4,1-0.8,2-1,3.1c-0.2,1.1-0.3,2.1-0.3,3.1l-0.2,0.9l-0.3,0.9
				c-0.2,0.6-0.5,1.2-0.8,1.8c-0.3,0.6-0.7,1.1-1,1.7c-0.4,0.6-0.7,1.1-1.1,1.6c-1,1.3-2.1,2.6-3.1,3.9c-0.1-0.1-0.1-0.2-0.2-0.4
				l-0.7-1.1l-1.4-2.1l-2.8-4.2l-2.8-4.2l-1.4-2.1l-0.7-1.1c-0.2-0.3-0.5-0.8-0.5-1l-0.1-0.2l-0.2-0.1c-0.8-0.4-1.6-0.8-2.3-1.3
				c-0.7-0.5-1.5-1.1-2.2-1.7l-2.3-1.6c-0.7-0.5-1.5-1-2.1-1.6c-0.6-0.6-1.2-1.3-1.8-2.1c-0.6-0.7-1.3-1.4-2.2-2
				c-1.7-1.1-3.6-1.5-4.8-2.5c-0.6-0.5-0.8-1.1-1.2-2c-0.2-0.5-0.5-0.9-0.8-1.4c-0.3-0.4-0.7-0.8-1-1.1c-0.4-0.3-0.7-0.7-1.1-1
				c-0.4-0.3-0.8-0.6-1.4-0.9c-0.7-0.3-1.4-0.2-1.6-0.2c0,0-0.1,0-0.1,0c-0.1,0-0.1-0.1-0.1-0.1c0.7-0.6,1.3-1.2,1.8-1.9
				c0.7-0.9,1.4-1.9,2.2-2.7c1.6-1.6,3.8-2.5,5.6-4.1c0.5-0.4,0.9-0.8,1.3-1.4c0.3-0.5,0.7-1.1,0.8-1.7c0.2-0.7,0.1-1.4,0.1-1.9
				c0-0.2,0-0.4,0.1-0.5c0.1-0.2,0.2-0.3,0.4-0.5c0.1-0.1,0.4-0.4,0.6-0.5c0.3-0.2,0.5-0.4,0.7-0.7l1.2-1.2c0.2-0.2,0.4-0.4,0.6-0.6
				c0.1-0.1,0.2-0.2,0.3-0.2l0.1-0.1c0.1,0.1,0.1,0.1,0.3,0.2c0.1,0.1,0.2,0.1,0.4,0.2c0.3,0,0,0,0.3,0l0.5-0.1
				c1.2-0.2,2.4-0.4,3.6-1.1c0.3-0.1,0.6-0.3,0.9-0.6l0.2-0.1c0.1-0.1,0.1-0.1,0.2-0.2c0.1-0.1,0.2-0.2,0.3-0.4
				c0.4-0.5,0.8-1.1,1.1-1.5c0.3-0.5,0.6-0.8,0.9-1.1c0.2-0.2,0.9-0.5,1.3-0.7c1-0.5,2.1-1,3.2-1.6c0.3-0.2,0.5-0.3,0.8-0.5
				c0.3-0.2,0.5-0.4,0.7-0.6c0.5-0.4,0.9-0.8,1.3-1.1c0.4-0.3,0.8-0.6,1.1-0.7c0,0,0,0,0,0c0,0,0,0,0,0.1c0.1,0.2,0.3,0.4,0.5,0.4
				c0.2,0.1,0.4,0.1,0.5,0.1c0.3,0,0.6,0,0.7,0l0.1,0l0.1,0l0,0l0.2-0.1c0.1,0,0.2-0.1,0.3-0.1c0.4-0.2,0.6-0.4,0.9-0.6
				c0.5-0.4,1-0.8,1.3-1c0.5-0.3,1-0.6,1.5-1.2c0.3-0.3,0.5-0.6,0.7-0.9c0.3,0.2,0.6,0.5,0.8,0.8c0.5,0.6,0.9,1.2,1.4,1.8
				c0.4,0.7,0.9,1.3,1.3,2c0.4,0.7,1,1.4,1.6,2.1c0.6,0.6,1.3,1.2,1.9,1.7c0.7,0.5,1.4,0.9,2.2,1.3c1.5,0.8,3,1.4,4.5,1.9
				c1.5,0.5,3.1,1,4.6,1.6l4.5,1.7c2.9,1.1,5.7,2.4,8,4.4C166.9,114.1,166.8,114.3,166.7,114.5z M270.8,60.7
				C270.8,60.7,270.8,60.7,270.8,60.7L270.8,60.7C270.8,60.6,270.8,60.7,270.8,60.7z"/>
			<path class="st1" d="M140.9,144L140.9,144C140.8,144,140.9,144,140.9,144z"/>
			<path class="st1" d="M737.1,162.1c-0.4-0.5-0.9-0.8-1.5-1.1c-0.5-0.3-1-0.6-1.4-1.1c-0.8-0.9-1.2-2.1-2-3L730,154
				c-0.8-0.9-1.6-1.8-2.3-2.8c-0.4-0.5-0.7-1-1-1.5c-0.3-0.5-0.6-1-0.9-1.6c-0.3-0.5-0.6-1.1-1-1.6c-0.2-0.2-0.4-0.5-0.7-0.7
				c-0.1-0.1-0.3-0.1-0.4-0.1c-0.1,0-0.2,0.1-0.3,0.1c-0.1,0-0.3,0.1-0.4,0.1c-0.6,0.1-1,0-1.4-0.4c-0.4-0.4-0.6-0.9-1-1.5
				c-0.7-1-1.7-1.9-2.7-2.6c-1-0.7-2.1-1.3-3.1-2l-3.2-1.8c-1-0.6-2.1-1.2-3.1-1.9c-1-0.7-1.9-1.4-2.5-2.3c-0.2-0.2-0.3-0.5-0.5-0.7
				c-0.2-0.3-0.3-0.6-0.5-0.8c-0.4-0.5-0.8-1-1.2-1.4c-1.7-1.8-3.5-3.4-5.4-5l-0.4-0.3l-0.4,0.3l-3,2.5c-1,0.8-2,1.7-3.1,2.4
				c-0.5,0.3-1,0.6-1.6,0.9c-0.6,0.3-1.2,0.5-1.8,0.8c-1.2,0.5-2.4,0.9-3.6,1.3c-1.2,0.4-2.5,0.6-3.8,0.7c-1.3,0.1-2.7,0.2-4,0.7
				c-0.7,0.2-1.3,0.5-1.9,0.8c-0.3,0.2-0.6,0.3-0.9,0.5c-0.3,0.2-0.6,0.4-0.9,0.5c-1.2,0.7-2.2,1.6-3.2,2.5c-2,1.8-3.7,3.8-5.7,5.3
				c-0.5,0.4-1,0.7-1.5,1c-0.3,0.1-0.6,0.3-0.9,0.4l-0.9,0.4c-1.2,0.6-2.4,1.3-3.5,1.9c-1.1,0.7-2.3,1.3-3.4,2
				c-1.1,0.6-2.3,1.2-3.5,1.6c-1.2,0.4-2.4,0.8-3.6,0.9c-1.2,0.1-2.4-0.1-3.5-0.5l-0.6-0.2l-0.4,0.5c-0.9,1.3-2.4,2.2-4.1,2.8
				c-1.7,0.7-3.4,1.1-5.2,2c-3.5,1.8-6,4.7-8.9,6.7c-1.5,1-3,1.7-4.7,2c-1.7,0.4-3.6,0.5-5.5,1.2c-1.9,0.7-3.4,1.9-4.9,3
				c-1.5,1.1-2.9,2.2-4.5,3c-3.2,1.7-6.6,3.3-9.9,4.9c-3.3,1.6-6.6,3.2-10,4.7c-3.4,1.5-6.8,2.9-10.2,4.1c-3.4,1.3-6.9,2.4-10.5,3.3
				l-2.7,0.6c-0.8,0.2-1.7,0.3-2.6,0.3c-1.8,0.1-3.6-0.1-5.6,0c-0.9,0.1-1.9,0.2-2.9,0.4c-1,0.2-1.9,0.7-2.7,1.2
				c-1.6,1-3.1,2-4.7,2.7c-3.3,1.4-7,1.3-10.7,2.4c-3.7,1.1-6.8,3.3-9.9,5.2c-1.5,1-3.1,1.9-4.7,2.7c-1.7,0.7-3.4,1.3-5.2,1.7
				c-3.5,0.8-7.2,1.2-10.9,1.7c-3.8,0.5-7.1,2.4-10.6,3.2c-1.7,0.4-3.6,0.4-5.5,0.8c-0.9,0.2-1.8,0.5-2.7,0.9
				c-0.8,0.4-1.5,1.1-2,1.8c-1.5-0.2-3-0.7-4.5-1.1c-0.8-0.2-1.6-0.4-2.4-0.6c-0.8-0.2-1.6-0.3-2.4-0.2c-1.7,0.1-3.1,0.9-4.5,1.7
				c-1.4,0.8-2.7,1.8-4.2,2.4c1.5-0.6,2.9-1.5,4.2-2.3c1.4-0.8,2.9-1.5,4.5-1.6c1.6,0,3.1,0.5,4.7,0.9c1.5,0.4,3.1,1,4.7,1.2l0.2,0
				l0.1-0.1c1-1.5,2.7-2.3,4.5-2.6c1.8-0.3,3.6-0.3,5.5-0.7c3.7-0.7,7-2.6,10.6-3c3.6-0.4,7.3-0.8,11-1.6c1.8-0.4,3.6-1,5.4-1.7
				c1.8-0.8,3.4-1.7,4.9-2.7c3.1-1.9,6.2-4,9.6-4.9c3.4-1,7.2-0.9,10.9-2.3c1.8-0.7,3.4-1.8,4.9-2.7c0.8-0.5,1.5-0.8,2.3-1
				c0.8-0.2,1.7-0.3,2.6-0.4c1.7-0.1,3.6,0.1,5.5,0c1,0,1.9-0.1,2.9-0.3l2.7-0.6c3.6-0.9,7.2-2,10.7-3.3c3.5-1.3,6.9-2.7,10.3-4.1
				c3.4-1.5,6.7-3,10.1-4.6c3.3-1.6,6.6-3.2,9.9-4.9c1.7-0.9,3.2-2.1,4.7-3.2c0.7-0.5,1.5-1.1,2.2-1.5c0.7-0.5,1.5-0.9,2.3-1.2
				c1.6-0.6,3.4-0.7,5.3-1.1c0.9-0.2,1.9-0.5,2.8-0.9c0.5-0.2,0.9-0.4,1.3-0.7c0.4-0.2,0.8-0.5,1.2-0.8c3.1-2.2,5.5-5.1,8.7-6.6
				c1.5-0.7,3.3-1.3,5.1-2c1.6-0.6,3.2-1.5,4.5-2.9c1.2,0.3,2.4,0.5,3.6,0.4c1.4-0.1,2.8-0.5,4.1-1c1.3-0.5,2.5-1.1,3.7-1.8
				c1.2-0.6,2.3-1.3,3.4-2c1.1-0.7,2.2-1.3,3.4-1.9l0.9-0.4c0.3-0.1,0.6-0.3,0.9-0.4c0.6-0.4,1.2-0.7,1.8-1.1
				c2.2-1.7,3.9-3.7,5.8-5.5c0.9-0.9,1.9-1.7,3-2.4c0.3-0.2,0.5-0.3,0.8-0.5c0.3-0.2,0.6-0.3,0.8-0.5c0.5-0.3,1.1-0.5,1.7-0.7
				c1.1-0.4,2.4-0.5,3.7-0.7c1.3-0.2,2.7-0.4,4-0.8c1.3-0.4,2.5-0.9,3.8-1.4c0.6-0.3,1.2-0.5,1.8-0.8c0.6-0.3,1.2-0.6,1.8-1
				c1.1-0.8,2.1-1.7,3.1-2.5l2.6-2.2c1.7,1.4,3.5,2.9,5,4.5c0.4,0.4,0.8,0.9,1.2,1.3c0.2,0.2,0.3,0.5,0.5,0.7
				c0.2,0.3,0.3,0.5,0.5,0.8c0.8,1.1,1.8,1.9,2.8,2.6c1,0.7,2.1,1.3,3.2,1.9l3.2,1.7c1.1,0.6,2.1,1.2,3.1,1.9c1,0.7,1.9,1.4,2.6,2.4
				c0.3,0.5,0.6,1,1.1,1.5c0.2,0.2,0.6,0.5,0.9,0.6c0.4,0.1,0.7,0.1,1,0c0.3,0,0.8-0.3,0.7-0.2c0.2,0.1,0.4,0.4,0.6,0.6
				c0.4,0.4,0.7,1,1,1.5c0.3,0.5,0.6,1.1,0.9,1.6c0.3,0.5,0.7,1,1.1,1.5c0.8,0.9,1.6,1.8,2.4,2.7l2.3,2.8c0.8,0.9,1.3,2,2.1,3
				C734.9,161.1,736.3,161.1,737.1,162.1c0.6,1,1.1,2.2,1.9,3.1C738.2,164.2,737.8,163.1,737.1,162.1z"/>
			<path class="st1" d="M326.6,99.5c0.5,0.3,0.9,0.6,1.2,1c0.3,0.3,0.6,0.8,0.8,1.4l0.7,1.7c0.3,0.6,0.6,1.1,0.8,1.6
				c0.2,0.5,0.4,1,0.5,1.6c0.3,1.1,0.5,2.3,0.7,3.5c0.1,0.6,0.3,1.3,0.7,1.9c0.3,0.6,0.8,1.1,1.3,1.6c0.5,0.4,0.9,0.8,1.3,1.2
				c0.2,0.2,0.4,0.4,0.6,0.6c0.1,0.1,0.2,0.2,0.3,0.4c0.1,0.1,0.2,0.2,0.2,0.4c0.6,1,1.1,2.1,1.5,3.2c0.4,1.1,0.8,2.3,1.2,3.4
				c-0.5-2.4-0.8-4.8-1.9-7.1c-0.1-0.1-0.1-0.3-0.2-0.4c-0.1-0.1-0.1-0.3-0.2-0.4c-0.2-0.3-0.4-0.5-0.6-0.8
				c-0.4-0.5-0.9-0.9-1.3-1.3c-0.4-0.4-0.7-0.9-0.9-1.3c-0.2-0.5-0.3-0.9-0.4-1.6c-0.2-1.2-0.3-2.4-0.5-3.6
				c-0.1-0.6-0.3-1.3-0.6-1.9c-0.2-0.6-0.6-1.2-0.7-1.7c-0.2-0.5-0.4-1.1-0.7-1.7c-0.3-0.6-0.6-1.2-1-1.8c-0.4-0.5-1-1-1.5-1.4
				c-0.2-0.1-0.4-0.3-0.6-0.4l0.2-0.3l-0.3-0.6c-0.1-0.2-0.2-0.4-0.4-0.4c-0.1-0.1-0.2-0.1-0.3-0.2c-0.2-0.1-0.3-0.1-0.4-0.1
				c-0.2,0-0.4,0-0.5,0l-0.4,0l-0.1,0c0,0,0,0,0,0c0,0,0,0,0.1,0l-1.1,0.3c-0.8,1-1.4,2.1-2.1,3c-0.3,0.4-0.7,0.8-1.1,1.2
				c-0.4,0.4-0.8,0.6-1.4,0.9l-1.6,0.9c-0.5,0.3-1.1,0.7-1.6,1.2c-0.5,0.5-0.9,1.1-1.2,1.7c-0.3,0.6-0.5,1.2-0.7,1.7
				c-0.4,1.1-0.9,2.2-1.3,3.3c-0.2,0.5-0.5,1.1-0.8,1.6c-0.3,0.5-0.5,1-0.9,1.5c-0.3,0.5-0.6,1-1,1.4c-0.4,0.5-0.8,0.9-1.2,1.3
				c-0.4,0.4-0.9,0.8-1.4,1.1l-0.8,0.4l-0.8,0.3c-0.2-0.1-0.3-0.3-0.2-0.5c0,0.1-0.1,0.2,0,0.3c0,0.1,0.1,0.2,0.2,0.2l0,0l0,0
				l0.9-0.2c0.3-0.1,0.6-0.2,0.9-0.3c0.6-0.3,1.1-0.6,1.6-1c0.5-0.4,1-0.8,1.4-1.2c0.4-0.4,0.8-0.9,1.2-1.4c1.5-2,2.6-4.2,3.5-6.4
				c0.2-0.6,0.5-1.1,0.7-1.6c0.3-0.5,0.5-0.9,0.9-1.2c0.7-0.7,1.8-1.2,2.9-1.8c0.5-0.3,1.1-0.7,1.6-1.1c0.5-0.4,1-0.9,1.4-1.4
				c0.6-0.8,1.1-1.6,1.6-2.3l0.2,0.2C325.5,98.8,326.1,99.2,326.6,99.5z"/>
		</g>
	</g>
</g>
</svg>
